<?xml version="1.0" encoding="UTF-8"?>
<svg width="26px" height="17px" viewBox="0 0 26 17" version="1.1" xmlns="http://www.w3.org/2000/svg" xmlns:xlink="http://www.w3.org/1999/xlink">
    <!-- Generator: Sketch 53.1 (72631) - https://sketchapp.com -->
    <title>Fill 1</title>
    <desc>Created with Sketch.</desc>
    <g id="After-Desktop" stroke="none" stroke-width="1" fill="none" fill-rule="evenodd">
        <g id="Homepage" transform="translate(-1360.000000, -61.000000)" fill="#2C1F4C">
            <path d="M1361.47727,61 C1360.67399,61 1360,61.6686276 1360,62.4655172 L1360,76.5344828 C1360,77.3313724 1360.67399,78 1361.47727,78 L1384.52273,78 C1385.32601,78 1386,77.3313724 1386,76.5344828 L1386,62.4655172 C1386,61.6686276 1385.32601,61 1384.52273,61 L1361.47727,61 Z M1363.17614,62.7586207 L1382.82386,62.7586207 L1373.31377,71.1853448 C1373.18451,71.2998369 1372.81519,71.2998369 1372.68593,71.1853448 L1363.17614,62.7586207 Z M1361.77273,63.8669034 L1371.50441,72.4952828 C1372.36539,73.2578207 1373.6349,73.2578207 1374.49589,72.4952828 L1384.22757,63.8669034 L1384.22757,76.2414379 L1361.77302,76.2414379 L1361.77273,63.8669034 Z" id="Fill-1"></path>
        </g>
    </g>
</svg>