<?xml version="1.0" encoding="UTF-8"?>
<svg width="90px" height="110px" viewBox="0 0 90 110" version="1.1" xmlns="http://www.w3.org/2000/svg" xmlns:xlink="http://www.w3.org/1999/xlink">
    <!-- Generator: Sketch 53.1 (72631) - https://sketchapp.com -->
    <title>symbol</title>
    <desc>Created with Sketch.</desc>
    <defs>
        <linearGradient x1="50%" y1="0%" x2="50%" y2="99.4536529%" id="linearGradient-1">
            <stop stop-color="#FBCE83" offset="0%"></stop>
            <stop stop-color="#F08176" offset="100%"></stop>
        </linearGradient>
        <path d="M44.9944248,0.783550725 L42.3987611,2.95485507 C40.6680531,4.40398551 0,38.72 0,64.0207971 L0,64.0207971 C0,89.8325362 31.1615044,107.045942 32.4884071,107.765725 L32.4884071,107.765725 L35.1358407,109.202899 L43.0534513,101.325145 L44.9960177,99.392971 L49.7771681,104.15087 L54.8538053,109.202899 L57.5020354,107.765725 C58.8281416,107.045942 89.989646,89.8325362 89.989646,64.0207971 L89.989646,64.0207971 C89.989646,38.72 49.32,4.40398551 47.589292,2.95485507 L47.589292,2.95485507 L44.9944248,0.783550725 Z M8.09442478,64.0207971 C8.09442478,47.425942 32.6899115,22.275 44.9944248,11.4065217 L44.9944248,11.4065217 C57.2981416,22.2734058 81.8952212,47.4243478 81.8952212,64.0207971 L81.8952212,64.0207971 C81.8952212,81.1983333 63.1409735,94.6980435 56.1910619,99.11 L56.1910619,99.11 L50.7361062,93.6833333 L51.1080531,93.3142754 C51.810531,92.6757971 52.4946903,92.0532609 53.169292,91.4378986 L53.169292,91.4378986 C64.4678761,81.1289855 71.8048673,73.9064493 71.8048673,64.1076812 L71.8048673,64.1076812 C71.8048673,54.811087 64.5276106,47.527971 55.2384956,47.527971 L55.2384956,47.527971 C51.5851327,47.527971 47.9652212,48.7395652 44.9944248,50.8781884 L44.9944248,50.8781884 C42.0244248,48.7395652 38.4061062,47.527971 34.7511504,47.527971 L34.7511504,47.527971 C25.4620354,47.527971 18.1839823,54.811087 18.1839823,64.1076812 L18.1839823,64.1076812 C18.1839823,74.4723913 26.389115,81.9523913 38.8497345,93.2632609 L38.8497345,93.2632609 L38.840177,93.272029 L39.2543363,93.6825362 L33.7953982,99.1139855 C26.8423009,94.7147826 8.09442478,81.2501449 8.09442478,64.0207971 L8.09442478,64.0207971 Z M48.0759292,58.9671739 C49.8544248,56.877971 52.5321239,55.628913 55.2384956,55.628913 L55.2384956,55.628913 C59.9893805,55.628913 63.7112389,59.3537681 63.7112389,64.1076812 L63.7112389,64.1076812 C63.7112389,70.9061594 56.5311504,77.4344203 45.5742478,87.4021739 L45.5742478,87.4021739 L45.4452212,87.5273188 L45.4420354,87.5257246 L45.0047788,87.9617391 L44.3827434,87.3471739 C33.4807965,77.4551449 26.2792035,70.9181159 26.2792035,64.1076812 L26.2792035,64.1076812 C26.2792035,59.3537681 30.0010619,55.628913 34.7511504,55.628913 L34.7511504,55.628913 C37.4567257,55.628913 40.1360177,56.8763768 41.9129204,58.9663768 L41.9129204,58.9663768 L44.9928319,62.5876087 L48.0759292,58.9671739 Z" id="path-2"></path>
    </defs>
    <g id="After-Desktop" stroke="none" stroke-width="1" fill="none" fill-rule="evenodd">
        <g id="Homepage" transform="translate(-675.000000, -8339.000000)">
            <g id="symbol" transform="translate(675.000000, 8339.000000)">
                <g id="Group-3" transform="translate(0.000000, 0.013551)">
                    <mask id="mask-3" fill="white">
                        <use xlink:href="#path-2"></use>
                    </mask>
                    <use id="Clip-2" fill="url(#linearGradient-1)" xlink:href="#path-2"></use>
                </g>
                <polygon id="Fill-4" fill="#CE5E70" points="50.7361858 93.6972029 45.5400796 98.8616232 44.9953009 99.4068406 47.4396372 101.838797 53.1805221 96.1291594"></polygon>
            </g>
        </g>
    </g>
</svg>