<?xml version="1.0" encoding="UTF-8"?>
<svg width="65px" height="42px" viewBox="0 0 65 42" version="1.1" xmlns="http://www.w3.org/2000/svg" xmlns:xlink="http://www.w3.org/1999/xlink">
    <!-- Generator: Sketch 53.1 (72631) - https://sketchapp.com -->
    <title>001-golden-gate-bridge</title>
    <desc>Created with Sketch.</desc>
    <g id="After-Desktop" stroke="none" stroke-width="1" fill="none" fill-rule="evenodd">
        <g id="Homepage" transform="translate(-413.000000, -2591.000000)" fill="#2C204D" fill-rule="nonzero">
            <g id="Group-11" transform="translate(263.000000, 2537.000000)">
                <g id="001-golden-gate-bridge" transform="translate(150.000000, 54.000000)">
                    <path d="M64.2821674,21.0278511 C64.6114908,21.0278511 64.8784977,20.7611064 64.8784977,20.4321064 C64.8784977,20.1031064 64.6114908,19.8363617 64.2821674,19.8363617 L60.915883,19.8363617 L60.915883,18.1971702 C61.9997133,18.440234 63.1260321,18.5693617 64.2821674,18.5693617 C64.6114908,18.5693617 64.8784977,18.302617 64.8784977,17.973617 C64.8784977,17.644617 64.6114908,17.3778723 64.2821674,17.3778723 C56.4702408,17.3778723 50.115,11.0287234 50.115,3.22461702 C50.115,2.89561702 49.8479931,2.62887234 49.5186697,2.62887234 L48.9569266,2.62887234 L48.9569266,0.621957447 C48.9569266,0.292957447 48.6899197,0.026212766 48.3605963,0.026212766 C48.0312729,0.026212766 47.7642661,0.292957447 47.7642661,0.621957447 L47.7642661,2.62902128 L47.202672,2.62902128 C46.8733486,2.62902128 46.6063417,2.89576596 46.6063417,3.22476596 C46.6063417,11.0288723 40.2509518,17.3780213 32.4391743,17.3780213 C24.6273968,17.3780213 18.2720069,11.0288723 18.2720069,3.22476596 C18.2720069,2.89576596 18.005,2.62902128 17.6756766,2.62902128 L17.1140826,2.62902128 L17.1140826,0.621957447 C17.1140826,0.292957447 16.8470757,0.026212766 16.5177523,0.026212766 C16.1884289,0.026212766 15.921422,0.292957447 15.921422,0.621957447 L15.921422,2.62902128 L15.359828,2.62902128 C15.0305046,2.62902128 14.7634977,2.89576596 14.7634977,3.22476596 C14.7634977,11.0288723 8.4081078,17.3780213 0.596330275,17.3780213 C0.267006881,17.3780213 8.4743629e-15,17.644766 8.4743629e-15,17.973766 C8.4743629e-15,18.302766 0.267006881,18.5695106 0.596330275,18.5695106 C1.75306193,18.5695106 2.87982798,18.440234 3.9641055,18.1970213 L3.9641055,19.8365106 L0.596330275,19.8365106 C0.267006881,19.8365106 0,20.1032553 0,20.4322553 C0,20.7612553 0.267006881,21.028 0.596330275,21.028 L14.7634977,21.028 L14.7634977,22.2939574 L0.596330275,22.2939574 C0.267006881,22.2939574 0,22.5607021 0,22.8897021 C0,23.2187021 0.267006881,23.4854468 0.596330275,23.4854468 L14.7634977,23.4854468 L14.7634977,31.2599149 L14.3474083,31.2599149 C14.0180849,31.2599149 13.751078,31.5266596 13.751078,31.8556596 L13.751078,36.1255106 C13.2081193,36.1372766 12.6615826,35.9469362 12.2384862,35.5510638 C10.9593578,34.3540638 8.95538991,34.3540638 7.67611239,35.5509149 C6.8540711,36.3203191 5.56629587,36.3200213 4.74440367,35.5509149 C4.50408257,35.3260213 4.12675459,35.338383 3.90149083,35.578617 C3.67637615,35.8187021 3.68875,36.1958085 3.9290711,36.4207021 C5.20819954,37.6175532 7.21216743,37.6174043 8.49144495,36.4205532 C9.31333716,35.6514468 10.6011124,35.6512979 11.4231537,36.4207021 C12.7024312,37.6175532 14.7063991,37.6174043 15.9855275,36.4205532 C16.8075688,35.6514468 18.095195,35.6512979 18.9170872,36.4207021 C20.1965138,37.6175532 22.2003326,37.6174043 23.479461,36.4205532 C24.3015023,35.6514468 25.5891284,35.6512979 26.4111697,36.4207021 C27.6904472,37.6175532 29.6944151,37.6174043 30.9733945,36.4205532 C31.7952867,35.6515957 33.0830619,35.6511489 33.9051032,36.4207021 C35.1845298,37.6174043 37.1881995,37.6175532 38.4674771,36.4205532 C39.2895183,35.6512979 40.5771445,35.6514468 41.3991858,36.4207021 C42.6784633,37.6175532 44.6824312,37.6174043 45.9614106,36.4205532 C46.7836009,35.6512979 48.0712271,35.6514468 48.8931193,36.4207021 C50.1723968,37.6175532 52.1763647,37.6174043 53.4554931,36.4205532 C54.2776835,35.6512979 55.5653096,35.6514468 56.3872018,36.4207021 C57.0267661,37.0191277 57.8476147,37.3181915 58.6684633,37.3181915 C59.4891628,37.3181915 60.3100115,37.0189787 60.9495757,36.4207021 C61.1898968,36.1956596 61.2022706,35.8187021 60.977156,35.578617 C60.7520413,35.3386809 60.3747133,35.3264681 60.1342431,35.5509149 C59.3125,36.3203191 58.0248739,36.3201702 57.2025344,35.5510638 C55.923555,34.3540638 53.919289,34.3539149 52.6401606,35.5509149 C52.2170642,35.9470851 51.6705275,36.1375745 51.1275688,36.1258085 L51.1275688,31.8556596 C51.1275688,31.5266596 50.8605619,31.2599149 50.5312385,31.2599149 L50.115,31.2599149 L50.115,23.4854468 L64.2821674,23.4854468 C64.6114908,23.4854468 64.8784977,23.2187021 64.8784977,22.8897021 C64.8784977,22.5607021 64.6114908,22.2939574 64.2821674,22.2939574 L50.115,22.2939574 L50.115,21.028 L64.2821674,21.028 L64.2821674,21.0278511 Z M59.7230734,19.8363617 L56.9516284,19.8363617 L56.9516284,16.7061702 C57.8276376,17.1835106 58.7549312,17.5781915 59.7230734,17.8793404 L59.7230734,19.8363617 Z M55.759117,15.9839787 L55.759117,19.8363617 L52.9873739,19.8363617 L52.9873739,13.6120213 C53.8129931,14.5072766 54.7432683,15.3045319 55.759117,15.9839787 Z M51.7947133,12.1493191 L51.7947133,19.8363617 L50.115,19.8363617 L50.115,9.15197872 C50.5631422,10.2173191 51.1284633,11.2218936 51.7947133,12.1493191 Z M46.6063417,22.2938085 L18.2720069,22.2938085 L18.2720069,21.0278511 L46.6063417,21.0278511 L46.6063417,22.2938085 Z M15.9561583,3.8203617 L17.0793463,3.8203617 L17.0793463,31.2593191 L15.9561583,31.2593191 L15.9561583,3.8203617 Z M36.9990138,19.8363617 L36.9990138,17.8790426 C37.967156,17.5778936 38.8944495,17.1830638 39.7704587,16.7057234 L39.7704587,19.8363617 L36.9990138,19.8363617 Z M35.8063532,19.8363617 L33.0349083,19.8363617 L33.0349083,18.5567021 C33.9830734,18.5203617 34.9093234,18.398234 35.8063532,18.1970213 L35.8063532,19.8363617 Z M31.8422477,19.8363617 L29.0722936,19.8363617 L29.0722936,18.1970213 C29.9687271,18.398234 30.8946789,18.5203617 31.8422477,18.5567021 L31.8422477,19.8363617 L31.8422477,19.8363617 Z M27.879633,19.8363617 L25.1081881,19.8363617 L25.1081881,16.7057234 C25.9841972,17.1830638 26.9114908,17.5777447 27.879633,17.8791915 L27.879633,19.8363617 Z M47.7990023,3.8203617 L48.9221904,3.8203617 L48.9221904,31.2593191 L47.7990023,31.2593191 L47.7990023,3.8203617 Z M46.6063417,19.8363617 L44.9270757,19.8363617 L44.9270757,12.1485745 C45.5930275,11.2211489 46.1581995,10.2170213 46.6063417,9.15197872 L46.6063417,19.8363617 Z M43.7344151,13.6114255 L43.7344151,19.8365106 L40.9629702,19.8365106 L40.9629702,15.9835319 C41.9788188,15.3039362 42.908945,14.5066809 43.7344151,13.6114255 Z M23.9153784,15.9835319 L23.9153784,19.8363617 L21.1437844,19.8363617 L21.1437844,13.6112766 C21.9694037,14.5066809 22.8996789,15.3040851 23.9153784,15.9835319 Z M19.9511239,12.1484255 L19.9511239,19.8363617 L18.2720069,19.8363617 L18.2720069,9.15197872 C18.7201491,10.2170213 19.2853211,11.2211489 19.9511239,12.1484255 Z M11.8923165,13.6106809 L11.8923165,19.8365106 L9.12087156,19.8365106 L9.12087156,15.9830851 C10.1365711,15.3033404 11.0668463,14.5059362 11.8923165,13.6106809 Z M5.15676606,17.8790426 C6.12490826,17.5777447 7.05220183,17.1829149 7.92821101,16.7054255 L7.92821101,19.8363617 L5.15676606,19.8363617 L5.15676606,17.8790426 Z M13.0849771,19.8363617 L13.0849771,12.1475319 C13.7506307,11.2204043 14.3155046,10.2165745 14.7634977,9.15197872 L14.7634977,19.8363617 L13.0849771,19.8363617 Z M15.1700459,35.550766 C15.0983372,35.6179362 15.0218578,35.6770638 14.9435894,35.7324681 L14.9435894,32.4514043 L18.0922133,32.4514043 L18.0922133,34.7158298 C17.0723394,34.5183404 15.9771789,34.7958085 15.1700459,35.550766 Z M49.7084518,35.5509149 C48.901617,34.7958085 47.8063073,34.5180426 46.7862844,34.7158298 L46.7862844,32.4514043 L49.9347592,32.4514043 L49.9347592,35.732617 C49.8564908,35.6772128 49.7801606,35.6180851 49.7084518,35.5509149 Z M46.1899541,31.2599149 C45.8606307,31.2599149 45.5936239,31.5266596 45.5936239,31.8556596 L45.5936239,35.2019574 C45.4373853,35.3045745 45.2866628,35.4192553 45.146078,35.5509149 C44.3243349,36.3203191 43.0365596,36.3201702 42.2143693,35.5510638 C40.935539,34.3540638 38.9312729,34.3539149 37.6519954,35.5509149 C36.8299541,36.3203191 35.542328,36.3198723 34.7202867,35.5510638 C33.4413073,34.3539149 31.4371904,34.3542128 30.1580619,35.5509149 C29.3360206,36.3203191 28.0482454,36.3198723 27.2263532,35.5510638 C25.9473739,34.3540638 23.9432569,34.3540638 22.6639794,35.5509149 C21.8420872,36.3200213 20.5543119,36.3200213 19.7322706,35.5510638 C19.5916858,35.4194043 19.4409633,35.3048723 19.2848739,35.2022553 L19.2848739,31.8556596 C19.2848739,31.5266596 19.017867,31.2599149 18.6885436,31.2599149 L18.2720069,31.2599149 L18.2720069,23.4854468 L46.6063417,23.4854468 L46.6063417,31.2599149 L46.1899541,31.2599149 L46.1899541,31.2599149 Z" id="Shape"></path>
                    <path d="M60.134094,40.0849787 C59.3123509,40.854234 58.0247248,40.854383 57.2023853,40.0851277 C55.923406,38.8879787 53.9191399,38.8881277 52.6400115,40.0849787 C51.8182683,40.854234 50.5306422,40.854383 49.7083028,40.0851277 C48.4294725,38.8879787 46.4250573,38.8881277 45.1459289,40.0849787 C44.3241858,40.854234 43.0364106,40.854383 42.2142202,40.0851277 C40.9353899,38.8879787 38.9311239,38.8881277 37.6518463,40.0849787 C36.829805,40.854383 35.5421789,40.8539362 34.7201376,40.0851277 C33.4411583,38.8879787 31.4370413,38.8884255 30.1579128,40.0849787 C29.3358716,40.854234 28.0480963,40.8540851 27.2262041,40.0851277 C25.9472248,38.8881277 23.9431078,38.8882766 22.6638303,40.0849787 C21.8419381,40.8540851 20.5541628,40.8539362 19.7321216,40.0851277 C18.4531422,38.8881277 16.4491743,38.8882766 15.1697477,40.0849787 C14.3478555,40.8540851 13.0600803,40.8539362 12.238039,40.0851277 C10.9589106,38.8881277 8.95494266,38.8882766 7.67566514,40.0849787 C6.85362385,40.854234 5.56584862,40.854234 4.74395642,40.0849787 C4.50363532,39.8600851 4.12630734,39.8724468 3.90104358,40.1126809 C3.6759289,40.352766 3.68830275,40.7297234 3.92862385,40.954766 C5.20775229,42.1514681 7.21172018,42.151617 8.49099771,40.954617 C9.31288991,40.1856596 10.6006651,40.1852128 11.4227064,40.954766 C12.7019839,42.1514681 14.7059518,42.151617 15.9850803,40.954617 C16.8071216,40.1853617 18.0947477,40.1855106 18.9166399,40.954766 C20.1960665,42.1514681 22.1998853,42.151617 23.4790138,40.954617 C24.301055,40.1856596 25.5886812,40.1852128 26.4107225,40.954766 C27.69,42.1514681 29.6939679,42.151617 30.9729472,40.954617 C31.7948394,40.1855106 33.0826147,40.1853617 33.904656,40.954766 C35.1839335,42.1513191 37.1876032,42.151766 38.4670298,40.954617 C39.2890711,40.1855106 40.5766972,40.1853617 41.3987385,40.954766 C42.6780161,42.151617 44.6819839,42.1514681 45.9609633,40.954617 C46.7831537,40.1855106 48.0707798,40.1853617 48.892672,40.954766 C50.1719495,42.151617 52.1759174,42.1514681 53.4550459,40.954617 C54.2772362,40.1855106 55.5648624,40.1853617 56.3867546,40.954766 C57.0263188,41.5530426 57.8471674,41.8522553 58.6680161,41.8522553 C59.4887156,41.8522553 60.3095642,41.5530426 60.9491284,40.954766 C61.1894495,40.7297234 61.2018234,40.352766 60.9767087,40.1126809 C60.7520413,39.8727447 60.3747133,39.8605319 60.134094,40.0849787 Z" id="Path"></path>
                </g>
            </g>
        </g>
    </g>
</svg>