<?xml version="1.0" encoding="UTF-8"?>
<svg width="50px" height="49px" viewBox="0 0 50 49" version="1.1" xmlns="http://www.w3.org/2000/svg" xmlns:xlink="http://www.w3.org/1999/xlink">
    <!-- Generator: Sketch 53.1 (72631) - https://sketchapp.com -->
    <title>003-missouri</title>
    <desc>Created with Sketch.</desc>
    <g id="After-Desktop" stroke="none" stroke-width="1" fill="none" fill-rule="evenodd">
        <g id="Homepage" transform="translate(-696.000000, -2587.000000)" fill="#2C204D" fill-rule="nonzero">
            <g id="Group-11" transform="translate(263.000000, 2537.000000)">
                <g id="003-missouri" transform="translate(433.000000, 50.000000)">
                    <path d="M36.4139893,16.633517 C34.857116,12.2244389 33.0143655,8.80163257 30.9368877,6.46056858 C28.9279971,4.19667507 26.702204,3 24.5000484,3 C22.2978928,3 20.0720998,4.19667507 18.0632092,6.46056858 C15.9858282,8.8017294 14.1429808,12.2244389 12.5861075,16.633517 C9.25720232,26.0610005 9,35.9950787 9,49 L10.4307424,48.9999032 C10.4307424,36.1383815 10.6821322,26.3224313 13.9351846,17.1094178 C16.7804913,9.05154101 20.6311636,4.43002623 24.4999515,4.43002623 C26.7314602,4.43002623 28.9568657,5.96782002 30.986875,8.81547872 L28.3153615,8.81547872 C26.3429926,8.81547872 24.738457,10.4192112 24.738457,12.3905927 C24.738457,14.3619742 26.3429926,15.9657067 28.3153615,15.9657067 L34.6452511,15.9657067 C34.7873662,16.3388749 34.9272533,16.7199828 35.0646216,17.109321 C36.8005193,22.0256716 37.6814009,27.1140823 38.1256683,32.7449135 L28.6490948,32.7449135 L28.6490948,36.272389 L21.7816475,36.272389 L21.7816475,40.3719137 L13.1016747,40.3719137 L13.1016747,48.9999032 L14.5324171,48.9999032 L14.5324171,41.8020367 L21.7816475,41.8020367 L21.7816475,48.9999032 L23.2123899,48.9999032 L23.2123899,37.7026088 L28.6492886,37.7026088 L28.6492886,49 L30.080031,49 L30.080031,34.1751333 L38.2280649,34.1751333 C38.5235327,38.6978854 38.5692575,43.5775388 38.5692575,49 L40,49 C40.0000968,35.9950787 39.7428945,26.0610005 36.4139893,16.633517 Z M28.3154584,14.5357773 C27.1321339,14.5357773 26.1692963,13.5734216 26.1692963,12.3906895 C26.1692963,11.2079574 27.1321339,10.2456018 28.3154584,10.2456018 L31.9232658,10.2456018 C32.6766603,11.4926265 33.3968268,12.9267194 34.073206,14.5357773 L28.3154584,14.5357773 Z" id="Shape"></path>
                    <polygon id="Path" points="46 33 46 49 47.4814555 49 47.4814555 34.4076104 50 34.4076104 50 33"></polygon>
                    <polygon id="Path" points="0 43 0 44.5125973 1.57143318 44.5125973 1.57143318 49 3 49 3 43"></polygon>
                    <path d="M6.57071597,0 C4.79746005,0 3.18673941,1.10189732 2.4976452,2.73254464 C1.06241125,3.02203125 0,4.29830357 0,5.83513393 C0,7.58029018 1.39736837,9 3.11506175,9 L6.57081483,9 C9.01309522,9 11,6.98132812 11,4.5 C11,2.01867187 9.01299635,0 6.57071597,0 Z M6.57071597,7.51640625 L3.11496288,7.51640625 C2.2024321,7.51640625 1.46014812,6.76215402 1.46014812,5.83513393 C1.46014812,4.92559152 2.16061189,4.1878125 3.05495138,4.1555692 L3.57725908,4.13678571 L3.72802934,3.62832589 C4.10263163,2.36541295 5.27152127,1.4834933 6.57071597,1.4834933 C8.2077349,1.4834933 9.53975302,2.83670759 9.53975302,4.5 C9.53975302,6.16329241 8.2077349,7.51640625 6.57071597,7.51640625 Z" id="Shape"></path>
                    <path d="M46.3748783,8.68456727 C46.3217717,5.95091774 44.0535891,3.74338998 41.2732936,3.74338998 C38.5411691,3.74338998 36.3035869,5.87488013 36.1764471,8.5426304 L35.6817073,8.5426304 C32.3564281,2.98769313 28.3791623,0 24.1674578,0 C18.6425015,0 13.5205824,5.1405323 9.74537813,14.4745387 C6.04045618,23.6348285 4,35.8961854 4,49 L5.45786354,49 C5.45786354,36.0747763 7.46130307,24.003026 11.0992989,15.0084592 C12.846682,10.6877683 14.8756877,7.308579 17.1295572,4.96486593 C19.3790833,2.62573461 21.7469641,1.43974288 24.1673591,1.43974288 C26.5877541,1.43974288 28.9556349,2.62573461 31.2051611,4.96496341 C33.4589318,7.30867648 35.4879375,10.6878658 37.2354193,15.0085567 C40.8734151,24.0029285 42.8768547,36.0746788 42.8768547,49 L44.3347182,49 C44.3347182,36.4901561 42.4739162,24.7504367 39.0818095,15.7414423 L45.3552918,15.7414423 C47.3650488,15.7414423 49,14.1268129 49,12.1420363 C49.0000987,10.5019636 47.9113158,9.11876151 46.3748783,8.68456727 Z M45.3554892,14.3016994 L38.518663,14.3016994 C37.8814831,12.7419536 37.2065957,11.300456 36.4980477,9.98237328 L37.7405237,9.98237328 L37.6513877,9.18368593 C37.6361862,9.04779308 37.6285854,8.91277758 37.6285854,8.7825388 C37.6285854,6.79776224 39.2635366,5.18313286 41.2732936,5.18313286 C43.2830507,5.18313286 44.9180018,6.79776224 44.9180018,8.7825388 C44.9180018,8.91414236 44.9099075,9.0488654 44.8934228,9.19470164 L44.8103081,9.92680734 L45.5533062,9.99212169 C46.6685436,10.0900932 47.5422352,11.0344218 47.5422352,12.1420363 C47.5422352,13.3328048 46.5612447,14.3016994 45.3554892,14.3016994 Z" id="Shape"></path>
                    <rect id="Rectangle" x="32" y="36" width="5" height="1"></rect>
                    <rect id="Rectangle" x="32" y="39" width="5" height="1"></rect>
                    <rect id="Rectangle" x="32" y="42" width="5" height="1"></rect>
                    <rect id="Rectangle" x="32" y="46" width="5" height="1"></rect>
                    <rect id="Rectangle" x="26" y="46" width="1" height="1"></rect>
                    <rect id="Rectangle" x="26" y="43" width="1" height="1"></rect>
                    <rect id="Rectangle" x="26" y="40" width="1" height="1"></rect>
                    <rect id="Rectangle" x="17" y="46" width="3" height="1"></rect>
                    <rect id="Rectangle" x="17" y="43" width="3" height="1"></rect>
                    <path d="M42,7 C40.8972646,7 40,7.8972646 40,9 L41.3333032,9 C41.3333032,8.63239144 41.6323012,8.33330324 42,8.33330324 C42.3676086,8.33330324 42.6666968,8.63230116 42.6666968,9 L44,9 C44,7.89717433 43.1027354,7 42,7 Z" id="Path"></path>
                    <rect id="Rectangle" x="42" y="12" width="4" height="1"></rect>
                    <rect id="Rectangle" x="28" y="12" width="2" height="1"></rect>
                    <rect id="Rectangle" x="6" y="4" width="1" height="1"></rect>
                </g>
            </g>
        </g>
    </g>
</svg>