<?xml version="1.0" encoding="utf-8"?>
<!-- Generator: Adobe Illustrator 23.0.2, SVG Export Plug-In . SVG Version: 6.00 Build 0)  -->
<svg version="1.1" id="Layer_1" xmlns="http://www.w3.org/2000/svg" xmlns:xlink="http://www.w3.org/1999/xlink" x="0px" y="0px"
	 viewBox="0 0 50 49" style="enable-background:new 0 0 50 49;" xml:space="preserve">
<title>003-missouri</title>
<desc>Created with Sketch.</desc>
<path d="M33.6,37.4v-8h-1.3v-3.9h-1.1v-2h-1.6v-1.8h-1.2v-0.9c0-0.3-0.2-0.5-0.5-0.5h-0.2v-1.8h-0.5v-1.5h-0.5v-6.7h-0.4V10
	c0-0.1,0-0.2-0.1-0.2L26,9c-0.1-0.2-0.2-0.2-0.4-0.2h-0.1V1.5C25.5,1.2,25.3,1,25,1c-0.3,0-0.5,0.2-0.5,0.5v7.3h-0.1
	c-0.2,0-0.3,0.1-0.4,0.2l-0.4,0.8c0,0.1-0.1,0.2-0.1,0.2v0.4h-0.4v6.7h-0.5v1.5h-0.5v1.8H22c-0.3,0-0.5,0.2-0.5,0.5v0.9h-1.2v1.8
	h-1.6v2h-1.1v3.9h-1.3v8h-1V49h19.4V37.4H33.6z M32.7,37.4H32v-5.6h-1v5.6h-0.5v-5.6h-1v5.6h-0.7v-7h3.7
	C32.7,30.4,32.7,37.4,32.7,37.4z M26.8,19.6v0.8h-1.4v-9h0.4v6.7h0.5v1.5H26.8z M24.5,10.2l0.2-0.4h0.5l0.2,0.4v0.3h-1V10.2z
	 M23.2,19.6h0.5v-1.5h0.5v-6.7h0.3v9h-1.3V19.6z M22.5,21.4h5v0.4h-5V21.4z M21.3,22.7h7.4v0.8h-7.4V22.7z M19.7,24.5h10.5v1H19.7
	V24.5z M17.3,30.4h3.7v7h-0.7v-5.6h-1v5.6H19v-5.6h-1v5.6h-0.7V30.4z M21.6,48h-0.8v-9.1h-1V48h-0.5v-9.1h-1V48H18v-9.1h-1V48h-0.8
	v-9.7h0.1h5.3V48z M26.9,48V27.9c0-0.3-0.2-0.5-0.5-0.5c-0.3,0-0.5,0.2-0.5,0.5V48h-0.5V27.9c0-0.3-0.2-0.5-0.5-0.5
	c-0.3,0-0.5,0.2-0.5,0.5V48H24V27.9c0-0.3-0.2-0.5-0.5-0.5c-0.3,0-0.5,0.2-0.5,0.5V48h-0.5V37.4H22v-8h-0.6v-1.3h-1v1.3h-1.8v-3
	h12.7v3h-1.9v-1.3h-1v1.3H28v8h-0.6V48H26.9z M33.7,48H33v-9.1h-1V48h-0.5v-9.1h-1V48h-0.5v-9.1h-1V48h-0.8v-9.7h5.3h0.1V48z"/>
</svg>
