<?xml version="1.0" encoding="utf-8"?>
<!-- Generator: Adobe Illustrator 23.0.2, SVG Export Plug-In . SVG Version: 6.00 Build 0)  -->
<svg version="1.1" id="Layer_1" xmlns="http://www.w3.org/2000/svg" xmlns:xlink="http://www.w3.org/1999/xlink" x="0px" y="0px"
	 viewBox="0 0 50 49" style="enable-background:new 0 0 50 49;" xml:space="preserve">
<title>003-missouri</title>
<desc>Created with Sketch.</desc>
<path d="M33.6,38.4v-8h-1.3v-3.9h-1.1v-2h-1.6v-1.8h-1.2v-0.9c0-0.3-0.2-0.5-0.5-0.5h-0.2v-1.8h-0.5v-1.5h-0.5v-6.7h-0.4V11
	c0-0.1,0-0.2-0.1-0.2L26,10c-0.1-0.2-0.2-0.2-0.4-0.2h-0.1V2.5C25.5,2.2,25.3,2,25,2c-0.3,0-0.5,0.2-0.5,0.5v7.3h-0.1
	c-0.2,0-0.3,0.1-0.4,0.2l-0.4,0.8c0,0.1-0.1,0.2-0.1,0.2v0.4h-0.4v6.7h-0.5v1.5h-0.5v1.8H22c-0.3,0-0.5,0.2-0.5,0.5v0.9h-1.2v1.8
	h-1.6v2h-1.1v3.9h-1.3v8h-1V49h19.4V38.4H33.6z M32.7,38.4H32v-5.6h-1v5.6h-0.5v-5.6h-1v5.6h-0.7v-7h3.7
	C32.7,31.4,32.7,38.4,32.7,38.4z M26.8,20.6v0.8h-1.4v-9h0.4v6.7h0.5v1.5H26.8z M24.5,11.2l0.2-0.4h0.5l0.2,0.4v0.3h-1V11.2z
	 M23.2,20.6h0.5v-1.5h0.5v-6.7h0.3v9h-1.3V20.6z M22.5,22.4h5v0.4h-5V22.4z M21.3,23.7h7.4v0.8h-7.4V23.7z M19.7,25.5h10.5v1H19.7
	V25.5z M17.3,31.4h3.7v7h-0.7v-5.6h-1v5.6H19v-5.6h-1v5.6h-0.7V31.4z M21.6,49h-0.8v-9.1h-1V49h-0.5v-9.1h-1V49H18v-9.1h-1V49h-0.8
	v-9.7h0.1h5.3V49z M26.9,49V28.9c0-0.3-0.2-0.5-0.5-0.5c-0.3,0-0.5,0.2-0.5,0.5V49h-0.5V28.9c0-0.3-0.2-0.5-0.5-0.5
	c-0.3,0-0.5,0.2-0.5,0.5V49H24V28.9c0-0.3-0.2-0.5-0.5-0.5c-0.3,0-0.5,0.2-0.5,0.5V49h-0.5V38.4H22v-8h-0.6v-1.3h-1v1.3h-1.8v-3
	h12.7v3h-1.9v-1.3h-1v1.3H28v8h-0.6V49H26.9z M33.7,49H33v-9.1h-1V49h-0.5v-9.1h-1V49h-0.5v-9.1h-1V49h-0.8v-9.7h5.3h0.1V49z"/>
</svg>
