<?xml version="1.0" encoding="utf-8"?>
<!-- Generator: Adobe Illustrator 23.0.2, SVG Export Plug-In . SVG Version: 6.00 Build 0)  -->
<svg version="1.1" id="Layer_1" xmlns="http://www.w3.org/2000/svg" xmlns:xlink="http://www.w3.org/1999/xlink" x="0px" y="0px"
	 viewBox="0 0 50.4 50.4" style="enable-background:new 0 0 50.4 50.4;" xml:space="preserve">
<style type="text/css">
	.st0{fill:#2C204D;}
</style>
<title>003-missouri</title>
<desc>Created with Sketch.</desc>
<path class="st0" d="M34.1,39.5v-8.2h-1.3v-4h-1.1v-2.1h-1.6v-1.9h-1.2v-0.9c0-0.3-0.2-0.5-0.5-0.5H28V20h-0.5v-1.5H27v-6.9h-0.4
	v-0.3c0-0.1,0-0.2-0.1-0.2l-0.2-0.8C26.1,10,26,10,25.8,10h-0.1V2.5c0-0.3-0.2-0.5-0.5-0.5s-0.5,0.2-0.5,0.5V10h-0.1
	c-0.2,0-0.3,0.1-0.4,0.2l-0.4,0.8c0,0.1-0.1,0.2-0.1,0.2v0.4h-0.4v6.9h-0.5v1.5h-0.5V22h-0.1c-0.3,0-0.5,0.2-0.5,0.5v0.9h-1.2v1.9
	h-1.6v2.1h-1.1v4h-1.3v8.2h-1v10.8h20V39.5H34.1z M33.1,39.5h-0.7v-5.8h-1v5.8h-0.5v-5.8h-1v5.8h-0.7v-7.2h3.8
	C33.1,32.3,33.1,39.5,33.1,39.5z M27.1,21.2V22h-1.4v-9.3H26v6.9h0.5v1.5C26.5,21.2,27.1,21.2,27.1,21.2z M24.7,11.5l0.2-0.4h0.5
	l0.2,0.4v0.3h-1v-0.3H24.7z M23.3,21.2h0.5v-1.5h0.5v-6.9h0.3V22h-1.3V21.2z M22.6,23h5.1v0.4h-5.1V23z M21.4,24.3H29v0.8h-7.6V24.3
	z M19.7,26.2h10.8v1H19.7V26.2z M17.3,32.3h3.8v7.2h-0.7v-5.8h-1v5.8H19v-5.8h-1v5.8h-0.7V32.3z M21.7,50.4h-0.8V41h-1v9.4h-0.5V41
	h-1v9.4H18V41h-1v9.4h-0.8v-10h0.1h5.5C21.7,40.4,21.7,50.4,21.7,50.4z M27.2,50.4V29.7c0-0.3-0.2-0.5-0.5-0.5
	c-0.3,0-0.5,0.2-0.5,0.5v20.7h-0.5V29.7c0-0.3-0.2-0.5-0.5-0.5s-0.5,0.2-0.5,0.5v20.7h-0.4V29.7c0-0.3-0.2-0.5-0.5-0.5
	s-0.5,0.2-0.5,0.5v20.7h-0.5V39.5h-0.5v-8.2h-0.6v-1.3h-1v1.3h-1.9v-3.1h13.1v3.1h-2v-1.3h-1v1.3h-0.4v8.2h-0.6v10.9H27.2z
	 M34.2,50.4h-0.7V41h-1v9.4h-0.5V41h-1v9.4h-0.5V41h-1v9.4h-0.8v-10H34h0.1v10H34.2z"/>
<title>001-golden-gate-bridge</title>
<desc>Created with Sketch.</desc>
</svg>
