<?xml version="1.0" encoding="UTF-8"?>
<svg width="48px" height="42px" viewBox="0 0 48 42" version="1.1" xmlns="http://www.w3.org/2000/svg" xmlns:xlink="http://www.w3.org/1999/xlink">
    <!-- Generator: Sketch 53.1 (72631) - https://sketchapp.com -->
    <title>006-responsive</title>
    <desc>Created with Sketch.</desc>
    <g id="After-Desktop" stroke="none" stroke-width="1" fill="none" fill-rule="evenodd">
        <g id="Homepage" transform="translate(-1031.000000, -763.000000)" fill="#2C204D" fill-rule="nonzero">
            <g id="006-responsive" transform="translate(1031.000000, 763.000000)">
                <path d="M45.6,21 L44.8,21 L44.8,4.03846154 C44.7974,1.80923077 43.008,0.002625 40.8,0 L7.2,0 C4.992,0.002625 3.2026,1.80923077 3.2,4.03846154 L3.2,16.1538462 L2.4,16.1538462 C1.0745,16.1538462 0,17.2386779 0,18.5769231 L0,39.5769231 C0,40.9151683 1.0745,42 2.4,42 L32.8,42 C33.2418,42 33.6,41.6383558 33.6,41.1923077 C33.5974,38.9630769 31.808,37.1564712 29.6,37.1538462 L27.2,37.1538462 L27.2,32.3076923 L36.8,32.3076923 L36.8,39.5769231 C36.8,40.9151683 37.8745,42 39.2,42 L45.6,42 C46.9255,42 48,40.9151683 48,39.5769231 L48,23.4230769 C48,22.0848317 46.9255,21 45.6,21 Z M17.6,39.5769231 C17.6,40.0229712 17.2418,40.3846154 16.8,40.3846154 L2.4,40.3846154 C1.9582,40.3846154 1.6,40.0229712 1.6,39.5769231 L1.6,38.7692308 L17.6,38.7692308 L17.6,39.5769231 Z M17.6,37.1538462 L1.6,37.1538462 L1.6,18.5769231 C1.6,18.130875 1.9582,17.7692308 2.4,17.7692308 L16.8,17.7692308 C17.2418,17.7692308 17.6,18.130875 17.6,18.5769231 L17.6,37.1538462 Z M29.6,38.7692308 C30.6168,38.7704423 31.5229,39.4172019 31.8632,40.3846154 L19.0528,40.3846154 C19.1476,40.1259519 19.1973,39.85275 19.2,39.5769231 L19.2,38.7692308 L29.6,38.7692308 Z M19.2,37.1538462 L19.2,32.3076923 L20.8,32.3076923 L20.8,37.1538462 L19.2,37.1538462 Z M22.4,37.1538462 L22.4,32.3076923 L25.6,32.3076923 L25.6,37.1538462 L22.4,37.1538462 Z M36.8,30.6923077 L19.2,30.6923077 L19.2,25.8461538 L36.8,25.8461538 L36.8,30.6923077 Z M36.8,23.4230769 L36.8,24.2307692 L19.2,24.2307692 L19.2,18.5769231 C19.1973,18.1936731 19.1034,17.8166827 18.9264,17.4776538 C18.9384,17.4663462 18.9544,17.4631154 18.9656,17.451 L26.8856,9.45484615 C27.1926,9.13399038 27.1838,8.62262019 26.866,8.31276923 C26.556,8.01049038 26.0645,8.01049038 25.7544,8.31276923 L17.8344,16.3089231 C17.8152,16.3291154 17.8072,16.3549615 17.7904,16.3759615 C17.48,16.2305769 17.1421,16.1548558 16.8,16.1538462 L4.8,16.1538462 L4.8,4.03846154 C4.8,2.70021635 5.8745,1.61538462 7.2,1.61538462 L40.8,1.61538462 C42.1255,1.61538462 43.2,2.70021635 43.2,4.03846154 L43.2,21 L39.2,21 C37.8745,21 36.8,22.0848317 36.8,23.4230769 Z M46.4,39.5769231 C46.4,40.0229712 46.0418,40.3846154 45.6,40.3846154 L39.2,40.3846154 C38.7582,40.3846154 38.4,40.0229712 38.4,39.5769231 L38.4,38.7692308 L46.4,38.7692308 L46.4,39.5769231 Z M46.4,37.1538462 L38.4,37.1538462 L38.4,23.4230769 C38.4,22.9770288 38.7582,22.6153846 39.2,22.6153846 L45.6,22.6153846 C46.0418,22.6153846 46.4,22.9770288 46.4,23.4230769 L46.4,37.1538462 Z" id="Shape"></path>
                <path d="M9.5592,25.9850769 C9.2468,25.669774 8.7404,25.669774 8.428,25.9850769 L5.0344,29.4113077 C4.7166,29.7212596 4.7078,30.2325288 5.0148,30.5533846 C5.3218,30.8742404 5.8282,30.883125 6.146,30.5731731 C6.1527,30.5667115 6.1592,30.5600481 6.1656,30.5533846 L9.5592,27.1271538 C9.702,26.877274 9.415,26.40225 9.5592,25.9850769 Z" id="Path"></path>
                <path d="M14.3396,25.9850769 C14.0296,25.6827981 13.5381,25.6827981 13.228,25.9850769 L9.8344,29.4113077 C9.5166,29.7211587 9.5078,30.2325288 9.8148,30.5533846 C10.1217,30.8742404 10.6282,30.883125 10.946,30.5731731 C10.9527,30.5667115 10.9592,30.5600481 10.9656,30.5533846 L14.3592,27.1271538 C14.6661,26.8062981 14.6574,26.2949279 14.3396,25.9850769 Z" id="Path"></path>
                <path d="M31.746,8.31357692 C31.436,8.01129808 30.9445,8.01129808 30.6344,8.31357692 L22.7144,16.3097308 C22.3966,16.6195817 22.3878,17.1309519 22.6947,17.4518077 C23.0016,17.7726635 23.5081,17.7815481 23.8259,17.4716971 C23.8326,17.4652356 23.8391,17.4585721 23.8456,17.4518077 L31.7656,9.45565385 C32.0726,9.13479808 32.0638,8.62342788 31.746,8.31357692 Z" id="Path"></path>
                <path d="M44.0772,28.1715 C43.7672,27.8691202 43.2756,27.8691202 42.9656,28.1715 L40.7032,30.4556538 C40.3854,30.7656058 40.3766,31.276875 40.6836,31.5977308 C40.9906,31.9185865 41.497,31.9274712 41.8148,31.6175192 C41.8214,31.6110577 41.828,31.6043942 41.8344,31.5977308 L44.0968,29.3135769 C44.4038,28.9927212 44.395,28.4814519 44.0772,28.1715 Z" id="Path"></path>
                <path d="M24.016,27.4615385 L24.008,27.4615385 C23.5662,27.4637596 23.2098,27.8272212 23.212,28.2732692 C23.2142,28.7193173 23.5742,29.0791442 24.016,29.0769231 C24.4578,29.0769231 24.816,28.7152788 24.816,28.2692308 C24.816,27.8231827 24.4578,27.4615385 24.016,27.4615385 Z" id="Path"></path>
                <path d="M25.6,3.23076923 L22.4,3.23076923 C21.9582,3.23076923 21.6,3.59241346 21.6,4.03846154 C21.6,4.48450962 21.9582,4.84615385 22.4,4.84615385 L25.6,4.84615385 C26.0418,4.84615385 26.4,4.48450962 26.4,4.03846154 C26.4,3.59241346 26.0418,3.23076923 25.6,3.23076923 Z" id="Path"></path>
            </g>
        </g>
    </g>
</svg>