<?xml version="1.0" encoding="UTF-8"?>
<svg width="29px" height="54px" viewBox="0 0 29 54" version="1.1" xmlns="http://www.w3.org/2000/svg" xmlns:xlink="http://www.w3.org/1999/xlink">
    <!-- Generator: Sketch 53.1 (72631) - https://sketchapp.com -->
    <title>001-space-needle copy</title>
    <desc>Created with Sketch.</desc>
    <g id="After-Desktop" stroke="none" stroke-width="1" fill="none" fill-rule="evenodd">
        <g id="Homepage" transform="translate(-981.000000, -5010.000000)" fill="#2C204D" fill-rule="nonzero">
            <g id="Group" transform="translate(318.000000, 4961.000000)">
                <g id="001-space-needle-copy" transform="translate(663.000000, 49.000000)">
                    <rect id="Rectangle" x="15" y="11" width="3" height="2"></rect>
                    <rect id="Rectangle" x="11" y="11" width="2" height="2"></rect>
                    <path d="M29,16.2151875 L29,14.630625 L26.5833155,14.630625 L26.5833155,12.5980313 L18.2140332,8.68819922 L19.4490774,5.6514375 L15.3055615,5.6514375 L15.3055615,0 L13.6944385,0 L13.6944385,5.65154297 L9.5509226,5.65154297 L10.7859668,8.68830469 L2.41668454,12.5981367 L2.41668454,14.6307305 L0,14.6307305 L0,16.215293 L3.49076656,16.215293 L3.49076656,17.7998555 L2.41668454,17.7998555 L2.41668454,18.5921367 C2.41668454,20.6273672 3.9854491,22.3082227 5.99602855,22.5283359 C6.68427319,25.8639961 9.96238953,41.9227734 10.1508043,46.0926914 C10.2406686,48.0884766 10.2487113,50.9561719 10.1726805,53.9605547 L11.7833746,54 C11.8602633,50.960707 11.8517916,48.0529336 11.7602115,46.0223438 C11.5699737,41.8109766 8.47415967,26.5727461 7.64554228,22.5534375 L9.7277558,22.5534375 C10.3346078,25.5012891 11.5804829,31.6601367 12.5419665,37.1125547 C12.710328,38.0659922 13.5153533,38.7319219 14.4998928,38.7319219 C15.4844322,38.7319219 16.2895648,38.0659922 16.457819,37.1124492 C17.4191954,31.6601367 18.6651777,25.5013945 19.2720297,22.5534375 L21.3542432,22.5534375 C20.5256259,26.5727461 17.4298118,41.8109766 17.239574,46.0224492 C17.1479939,48.0530391 17.139415,50.9606016 17.2164109,54 L18.827105,53.9605547 C18.7510742,50.9561719 18.759117,48.0883711 18.8489813,46.0927969 C19.0378249,41.9230898 22.3157268,25.864207 23.0041859,22.5283359 C25.0147654,22.3082227 26.5835299,20.6272617 26.5835299,18.5921367 L26.5835299,17.7998555 L25.5094479,17.7998555 L25.5094479,16.215293 L29,16.215293 L29,16.2151875 Z M14.8705025,36.8415 C14.8234257,37.1075977 14.6180675,37.1473594 14.4998928,37.1473594 C14.381718,37.1473594 14.1762526,37.1075977 14.1293902,36.8416055 C14.0417779,36.3444258 13.9515919,35.8413398 13.8600118,35.3354062 L15.1399882,35.3354062 C15.0483009,35.8413398 14.9583293,36.3443203 14.8705025,36.8415 Z M15.4307067,33.7508438 L13.5694006,33.7508438 C13.4711718,33.2212852 13.3718707,32.692043 13.2724624,32.1662813 L15.7276449,32.1662813 C15.6281293,32.692043 15.5288282,33.2212852 15.4307067,33.7508438 Z M16.0300521,30.5817187 L12.9701623,30.5817187 C12.8667862,30.0447773 12.7641608,29.5153242 12.6629294,28.9971562 L16.3371778,28.9971562 C16.2360537,29.5153242 16.133321,30.0447773 16.0300521,30.5817187 Z M16.6487002,27.4126992 L12.3512998,27.4126992 C12.2426691,26.8637344 12.137041,26.3338594 12.0357024,25.8281367 L16.9640831,25.8281367 C16.862959,26.3337539 16.7573309,26.8636289 16.6487002,27.4126992 Z M17.283541,24.2435742 L11.716459,24.2435742 C11.5890619,23.6151914 11.4729246,23.0470313 11.3716932,22.5534375 L17.6285212,22.5534375 C17.5270754,23.0470313 17.4109381,23.6150859 17.283541,24.2435742 Z M22.5555079,20.968875 L6.44449211,20.968875 C5.39421662,20.968875 4.49836187,20.3065313 4.1658211,19.3843125 L24.8341789,19.3843125 C24.5016381,20.3065313 23.6057834,20.968875 22.5555079,20.968875 Z M5.10188958,17.79975 L5.10188958,16.2151875 L6.82035647,16.2151875 L6.82035647,17.79975 L5.10188958,17.79975 Z M8.4314795,17.79975 L8.4314795,16.2151875 L10.2573975,16.2151875 L10.2573975,17.79975 L8.4314795,17.79975 Z M11.8685205,17.79975 L11.8685205,16.2151875 L13.6944385,16.2151875 L13.6944385,17.79975 L11.8685205,17.79975 Z M15.3055615,17.79975 L15.3055615,16.2151875 L17.1314795,16.2151875 L17.1314795,17.79975 L15.3055615,17.79975 Z M18.7426025,17.79975 L18.7426025,16.2151875 L20.5685205,16.2151875 L20.5685205,17.79975 L18.7426025,17.79975 Z M22.1796435,17.79975 L22.1796435,16.2151875 L23.8981104,16.2151875 L23.8981104,17.79975 L22.1796435,17.79975 Z M24.9721924,14.630625 L4.02780757,14.630625 L4.02780757,13.599668 L12.8437304,9.48111328 L11.9306105,7.236 L17.0693895,7.236 L16.1562696,9.48111328 L24.9721924,13.599668 L24.9721924,14.630625 Z" id="Shape"></path>
                    <path d="M14.5527893,41 C14.2371742,43.0969307 14.0557369,44.6473267 14.0137393,45.6077228 C14.0088672,45.7167327 14.0042875,45.8289109 14,45.9441584 L15.4629963,46 C15.4670889,45.8885149 15.4714738,45.780099 15.476151,45.6742574 C15.5159074,44.7662376 15.6921803,43.2693069 16,41.2250495 L14.5527893,41 Z" id="Path"></path>
                    <path d="M15.9774926,51 L14,51.0134246 C14.0044752,51.6701764 14.0121092,52.3386417 14.0227706,53 L16,52.9682811 C15.9894702,52.3129771 15.9818361,51.6506976 15.9774926,51 Z" id="Path"></path>
                    <path d="M14.0210776,48 C14.0100119,48.6307611 14.0028982,49.3007638 14,49.9915723 L15.9791859,50 C15.982084,49.3180142 15.989066,48.6568343 16,48.0347643 L14.0210776,48 Z" id="Path"></path>
                </g>
            </g>
        </g>
    </g>
</svg>