<?xml version="1.0" encoding="UTF-8"?>
<svg width="32px" height="50px" viewBox="0 0 32 50" version="1.1" xmlns="http://www.w3.org/2000/svg" xmlns:xlink="http://www.w3.org/1999/xlink">
    <!-- Generator: Sketch 53.1 (72631) - https://sketchapp.com -->
    <title>003-bouquet</title>
    <desc>Created with Sketch.</desc>
    <g id="After-Desktop" stroke="none" stroke-width="1" fill="none" fill-rule="evenodd">
        <g id="Homepage" transform="translate(-373.000000, -762.000000)" fill="#2C204D" fill-rule="nonzero">
            <g id="003-bouquet" transform="translate(373.000000, 762.000000)">
                <path d="M25.1529581,13.3381092 C25.3525269,13.3381092 25.5537246,13.3220273 25.7546347,13.2896686 C26.7546826,13.1283626 27.6330539,12.5805068 28.228024,11.747076 L31.8385629,6.68976608 C31.9848623,6.48479532 32.016479,6.21734893 31.922012,5.98294347 C31.8275449,5.74853801 31.620503,5.58060429 31.3748503,5.53908382 C31.3108503,5.52826511 29.8948024,5.2917154 28.1657485,5.27222222 C27.611976,3.60614035 26.9540599,2.30994152 26.9236886,2.2502924 C26.8089102,2.0254386 26.5878802,1.87709552 26.3395449,1.8582846 C26.091497,1.83898635 25.8509222,1.95263158 25.7046228,2.15769981 L22.0940838,7.21500975 C21.4991138,8.04844055 21.2587305,9.06764133 21.4172934,10.0849903 C21.5346587,10.8383041 21.8608862,11.5233918 22.3546826,12.0741715 C21.8080958,12.7348928 20.8457964,13.937232 19.7907545,15.4335283 L19.7907545,14.794347 C19.7907545,14.3906433 19.4690299,14.0633528 19.0721916,14.0633528 C18.6753533,14.0633528 18.3536287,14.3906433 18.3536287,14.794347 L18.3536287,17.5873294 C17.7769581,18.505653 17.2153293,19.4766082 16.7187545,20.4622807 L16.7187545,16.3572125 C16.7187545,16.357115 16.7187545,16.3569201 16.7187545,16.3567251 L16.7187545,15.0971735 L18.8123593,12.9673489 C19.092982,12.6818713 19.092982,12.2190058 18.8123593,11.9336257 C18.5317365,11.6481481 18.0767425,11.6481481 17.7962156,11.9336257 L16.7185629,13.0296296 L16.7185629,10.767154 C18.4661078,10.4244639 19.7905629,8.85769981 19.7905629,6.98138402 L19.7905629,0.730994152 C19.7905629,0.477680312 19.6616048,0.242397661 19.4497725,0.109161793 C19.2379401,-0.0240740741 18.973509,-0.0361598441 18.7506587,0.0771929825 C18.6925988,0.106725146 17.4112575,0.762378168 16.0000958,1.77982456 C14.5896048,0.762768031 13.3083593,0.107212476 13.2493413,0.0771929825 C13.026491,-0.0361598441 12.7619641,-0.0239766082 12.5502275,0.109161793 C12.3383952,0.242397661 12.2094371,0.477680312 12.2094371,0.730994152 L12.2094371,6.98138402 C12.2094371,8.85769981 13.5338922,10.4245614 15.2814371,10.767154 L15.2814371,14.5922027 L13.4360719,12.7149123 C13.1554491,12.4294347 12.7004551,12.4294347 12.4199281,12.7149123 C12.1393054,13.0003899 12.1393054,13.4632554 12.4199281,13.7486355 L15.2815329,16.6597466 L15.2815329,20.4622807 C13.4487186,16.8246589 10.729485,13.384308 9.64560479,12.0741715 C10.1394012,11.5233918 10.4656287,10.8383041 10.582994,10.0849903 C10.7415569,9.06764133 10.5011737,8.04844055 9.90620359,7.21500975 L6.29566467,2.15769981 C6.14936527,1.95263158 5.90879042,1.83908382 5.66074251,1.8582846 C5.41240719,1.87709552 5.19137725,2.0254386 5.0765988,2.2502924 C5.04594012,2.30994152 4.38802395,3.60623782 3.83434731,5.27231969 C2.10605988,5.2920078 0.689341317,5.52826511 0.625245509,5.53908382 C0.379592814,5.58060429 0.17245509,5.74853801 0.0780838323,5.98294347 C-0.0163832335,6.21734893 0.0152335329,6.48479532 0.161532934,6.68976608 L3.77207186,11.747076 C4.36704192,12.5805068 5.24541317,13.1282651 6.24546108,13.2896686 C6.44646707,13.3221248 6.64747305,13.3381092 6.84713772,13.3381092 C7.41863473,13.3381092 7.97815569,13.2061404 8.49111377,12.9520468 C8.7131018,13.2207602 9.01978443,13.598538 9.3828024,14.0634503 L8.75190419,14.0634503 C8.35506587,14.0634503 8.03334132,14.3907407 8.03334132,14.7944444 C8.03334132,15.1981481 8.35506587,15.5254386 8.75190419,15.5254386 L10.4875689,15.5254386 C11.5374371,16.9615984 12.7541078,18.7687135 13.7434251,20.6331384 C12.5746587,19.4648148 11.2758802,18.4164717 9.85762874,17.4982456 C5.55449102,14.7124756 1.67731737,14.0963938 1.51434731,14.07154 C1.30768862,14.0400585 1.09738922,14.1017544 0.938922156,14.2405458 C0.780359281,14.3794347 0.689245509,14.5816764 0.689245509,14.7944444 C0.689245509,14.911306 0.705053892,17.7008772 2.07549701,21.5847953 C3.31305389,25.0919103 5.94184431,30.1845029 11.4414371,34.6775828 L11.4414371,37.3563353 L8.39367665,48.9832359 C8.33609581,49.2026316 8.38208383,49.4368421 8.51813174,49.6169591 C8.65408383,49.797076 8.86467066,49.9026316 9.08790419,49.9026316 L22.9120958,49.9026316 C23.1353293,49.9026316 23.3459162,49.797076 23.4818683,49.6169591 C23.6179162,49.4368421 23.6639042,49.202729 23.6063234,48.9832359 L20.5585629,37.3563353 L20.5585629,34.6775828 C26.0580599,30.1845029 28.6869461,25.0919103 29.924503,21.5847953 C31.2950419,17.7008772 31.3107545,14.911306 31.3107545,14.7944444 C31.3107545,14.5816764 31.2195449,14.3794347 31.0610778,14.2405458 C30.9026108,14.1016569 30.6926946,14.0398635 30.4855569,14.07154 C30.3904192,14.0860624 28.1201437,14.4432749 25.1311138,15.8427875 C23.1725988,16.7597466 20.6301317,18.2693957 18.2504431,20.6454191 C19.241006,18.7770955 20.4608383,16.9650097 21.513006,15.5254386 L23.248,15.5254386 C23.6448383,15.5254386 23.9665629,15.1981481 23.9665629,14.7944444 C23.9665629,14.3907407 23.6448383,14.0634503 23.248,14.0634503 L22.6175808,14.0634503 C22.980503,13.5986355 23.286994,13.2208577 23.5088862,12.9521442 C24.0220359,13.2061404 24.5814611,13.3381092 25.1529581,13.3381092 Z M29.9588024,6.83489279 L28.8737725,8.35467836 C28.8226108,7.85438596 28.7295808,7.31871345 28.5909461,6.74502924 C29.0969102,6.7625731 29.5657006,6.79717349 29.9588024,6.83489279 Z M3.12622754,8.35467836 L2.04100599,6.83460039 C2.43372455,6.79688109 2.90241916,6.76247563 3.40905389,6.74512671 C3.27041916,7.31881092 3.17738922,7.85438596 3.12622754,8.35467836 Z M8.22208383,11.4182261 C7.71334132,11.7940546 7.09135329,11.9459064 6.47041916,11.8457115 C5.84958084,11.7455166 5.30423952,11.4054581 4.9348024,10.8880117 C3.90438323,9.44473684 4.99736527,6.03401559 5.84843114,4.01929825 L8.74328144,8.07407407 C9.50582036,9.14220273 9.2720479,10.6423977 8.22208383,11.4182261 Z M18.3534371,1.97202729 L18.3534371,3.84736842 C18.0235689,3.47417154 17.6373653,3.09717349 17.1949222,2.71695906 C17.6143713,2.42865497 18.013509,2.17651072 18.3534371,1.97202729 Z M13.6465629,6.98138402 L13.6465629,1.96998051 C15.4991138,3.091423 18.3535329,5.19756335 18.3535329,6.98138402 C18.3535329,8.30155945 17.2977246,9.37553606 16.0000958,9.37553606 C14.7024671,9.37553606 13.6465629,8.30155945 13.6465629,6.98138402 Z M3.4502515,21.1534113 C2.5999521,18.7632554 2.29566467,16.7930799 2.18673054,15.7070175 C3.5268024,16.0390838 6.21873054,16.8754386 9.08608383,18.7316764 C11.4614611,20.2694932 13.4787066,22.1938596 15.0813892,24.4515595 C16.9356647,27.0634503 18.2390419,30.1367446 18.9643114,33.5959064 L17.2906347,33.5959064 C16.3717365,29.4951267 14.5632575,26.004386 11.9085988,23.2140351 C11.6326707,22.9238791 11.1777725,22.9162768 10.8925509,23.1971735 C10.6073293,23.4778752 10.5999521,23.9407407 10.875976,24.2307992 C13.2748263,26.7522417 14.9324072,29.9000975 15.8133653,33.5959064 L12.4124551,33.5959064 C7.14893413,29.3209552 4.63358084,24.4800195 3.4502515,21.1534113 Z M19.1214371,35.0577973 L19.1214371,36.7210526 L12.8784671,36.7210526 L12.8784671,35.0577973 L19.1214371,35.0577973 Z M21.9768144,48.4405458 L18.9331737,48.4405458 L18.8115928,47.5125731 C18.7591856,47.1124756 18.3977964,46.8310916 18.0044072,46.8846004 C17.611018,46.9379142 17.3347066,47.3055556 17.3871138,47.7057505 L17.4834012,48.4404483 L10.0232814,48.4405458 L12.7120479,38.1829435 L16.1389222,38.1829435 L16.9774371,44.5805068 C17.0255329,44.9479532 17.3341317,45.2150097 17.6888144,45.2150097 C17.7204311,45.2150097 17.7524311,45.2128655 17.7846228,45.2084795 C18.178012,45.1551657 18.4543234,44.7875244 18.4019162,44.3873294 L17.5886946,38.1829435 L19.2879521,38.1829435 L21.9768144,48.4405458 Z M25.6863234,17.1923002 C27.4232335,16.3745614 28.918515,15.9293372 29.8130778,15.7075049 C29.7041437,16.7939571 29.3997605,18.7637427 28.5496527,21.1534113 C27.4214132,24.3251462 25.083018,28.8736842 20.3056287,32.995614 C19.6141796,29.8534113 18.4617964,27.0124756 16.8688862,24.5230019 C19.6311377,20.6020468 23.1724072,18.375731 25.6863234,17.1923002 Z M23.2567186,8.07407407 L26.1520479,4.01861598 C27.0038802,6.03235867 28.0976287,9.44191033 27.0651976,10.8880117 C26.6957605,11.4054581 26.1504192,11.7455166 25.5295808,11.8457115 C24.9086467,11.945809 24.2866587,11.7940546 23.778012,11.4182261 C22.7279521,10.6423977 22.4941796,9.14230019 23.2567186,8.07407407 Z" id="Shape"></path>
                <path d="M9.52172455,21.0708577 C9.01384431,20.6816764 8.47942515,20.3097466 7.93312575,19.9653996 C7.59568862,19.7526316 7.15286228,19.8584795 6.94380838,20.2016569 C6.73475449,20.5448343 6.83870659,20.9954191 7.1760479,21.2080897 C7.68536527,21.5292398 8.18366467,21.8760234 8.65705389,22.2385965 C8.78658683,22.3378168 8.93834731,22.38577 9.08876647,22.38577 C9.30673054,22.38577 9.52201198,22.2852827 9.66332934,22.0945419 C9.90217964,21.7720273 9.83865868,21.3137427 9.52172455,21.0708577 Z" id="Path"></path>
            </g>
        </g>
    </g>
</svg>