<?xml version="1.0" encoding="UTF-8"?>
<svg width="40px" height="48px" viewBox="0 0 40 48" version="1.1" xmlns="http://www.w3.org/2000/svg" xmlns:xlink="http://www.w3.org/1999/xlink">
    <!-- Generator: Sketch 53.1 (72631) - https://sketchapp.com -->
    <title>001-checklist-1</title>
    <desc>Created with Sketch.</desc>
    <g id="After-Desktop" stroke="none" stroke-width="1" fill="none" fill-rule="evenodd">
        <g id="Homepage" transform="translate(-702.000000, -760.000000)" fill="#2C204D" fill-rule="nonzero">
            <g id="001-checklist-1" transform="translate(702.000000, 760.000000)">
                <path d="M14.0936037,1.875 L14.1188525,1.875 C14.6362705,1.875 15.0556206,1.45532231 15.0556206,0.9375 C15.0556206,0.419677688 14.6362705,0 14.1188525,0 L14.0936037,0 C13.5765516,0 13.1568355,0.419677688 13.1568355,0.9375 C13.1568355,1.45532231 13.5765516,1.875 14.0936037,1.875 Z" id="Path"></path>
                <path d="M37.1370023,0 L17.8629977,0 C17.3455796,0 16.9262295,0.419677688 16.9262295,0.9375 C16.9262295,1.45532231 17.3455796,1.875 17.8629977,1.875 L37.1370023,1.875 C37.6536885,1.875 38.0737705,2.29541016 38.0737705,2.8125 L38.0737705,37.1660156 C38.0737705,37.6827393 37.6536885,38.1035156 37.1370023,38.1035156 L33.3258928,38.1035156 L33.3258928,17.2426758 C33.3258928,17.2320557 33.3247951,17.222168 33.3244291,17.2119141 C33.3240632,17.2005615 33.3233313,17.1892089 33.3225995,17.1782227 C33.320038,17.1394042 33.3156469,17.1013183 33.3086943,17.0639648 C33.3083284,17.0625 33.3079625,17.0603027 33.3075966,17.0584717 C33.2995462,17.017456 33.2882025,16.9775391 33.2746633,16.9383545 C33.2721019,16.9310302 33.2691745,16.9233398 33.266613,16.9160156 C33.2527078,16.8793945 33.237339,16.8435058 33.2194087,16.8094482 C33.2179449,16.8065185 33.2172131,16.8039551 33.2157494,16.8013916 C33.1963554,16.7651367 33.1740339,16.7303467 33.1502488,16.6970214 C33.1447599,16.689331 33.1389051,16.6820068 33.1330503,16.6743164 C33.1081675,16.6417237 33.0814549,16.6098633 33.0525469,16.5805664 C33.0521809,16.5802002 33.051815,16.5798339 33.0514491,16.5794677 L24.7745902,8.29614262 C24.7742243,8.29577634 24.7738584,8.29541016 24.7734924,8.29504397 C24.7442184,8.26611328 24.7127489,8.23974609 24.6801815,8.21484375 C24.672497,8.20861819 24.6648126,8.20275881 24.6567623,8.19726562 C24.6234631,8.17346194 24.5894321,8.15148928 24.5532055,8.13208012 C24.5502781,8.13061519 24.5469847,8.12915044 24.5436914,8.1276855 C24.5100263,8.11010738 24.4748975,8.09472656 24.4390369,8.08154297 C24.4313525,8.07861328 24.4233021,8.07568359 24.4156177,8.07275391 C24.3768296,8.05957031 24.3369438,8.04821775 24.2959602,8.03979488 C24.2941306,8.03942869 24.291935,8.03942869 24.2897395,8.0390625 C24.2527811,8.03173828 24.2147249,8.02770994 24.1766687,8.02478025 C24.165325,8.02404788 24.1543472,8.02368169 24.1430035,8.02331541 C24.1327577,8.02294922 24.1225117,8.02148438 24.1122659,8.02148438 L8.49495026,8.02148438 L8.49495026,2.8125 C8.49495026,2.29541016 8.91539813,1.875 9.43171841,1.875 L11.4022248,1.875 C11.9196429,1.875 12.338993,1.45532231 12.338993,0.9375 C12.338993,0.419677688 11.9196429,0 11.4022248,0 L9.43171841,0 C7.88239166,0 6.62141396,1.26159666 6.62141396,2.8125 L6.62141396,8.02148438 L2.81030445,8.02148438 C1.2606118,8.02148438 0,9.28344731 0,10.8339844 L0,45.1875 C0,46.7384033 1.2606118,48 2.81030445,48 L30.5155884,48 C32.065281,48 33.3258928,46.7384033 33.3258928,45.1875 L33.3258928,39.9785156 L37.1370023,39.9785156 C38.686695,39.9785156 39.9473068,38.716919 39.9473068,37.1660156 L39.9473068,2.8125 C39.9473068,1.26159666 38.686695,0 37.1370023,0 Z M25.049034,11.2225342 L30.1277078,16.3051758 L25.9858022,16.3051758 C25.4691159,16.3051758 25.049034,15.8843994 25.049034,15.3676758 L25.049034,11.2225342 Z M31.4523565,45.1875 C31.4523565,45.7045898 31.0322746,46.125 30.5155884,46.125 L2.81030445,46.125 C2.29398417,46.125 1.8735363,45.7045898 1.8735363,45.1875 L1.8735363,10.8339844 C1.8735363,10.3172607 2.29398417,9.89648438 2.81030445,9.89648438 L23.1754977,9.89648438 L23.1754977,15.3676758 C23.1754977,16.9185791 24.4361095,18.1801758 25.9858022,18.1801758 L31.4523565,18.1801758 L31.4523565,45.1875 Z" id="Shape"></path>
                <path d="M10.3706821,22.1275635 L8.53483607,23.9644776 L7.94825817,23.3774414 C7.58269902,23.0112305 6.98953452,23.0112305 6.62360946,23.3774414 C6.2576844,23.7436523 6.2576844,24.3372802 6.62360946,24.703125 L7.87251166,25.9533692 C8.04815569,26.1291504 8.28637293,26.2276612 8.53483607,26.2276612 C8.7832992,26.2276612 9.02151644,26.1291504 9.19716047,25.9533692 L11.6953308,23.4532471 C12.0612558,23.0870362 12.0612558,22.4934082 11.6953308,22.1271973 C11.3297716,21.7613526 10.7366071,21.7613526 10.3706821,22.1275635 Z" id="Path"></path>
                <path d="M10.3706821,29.6275635 L8.53483607,31.4648438 L7.94825817,30.8778076 C7.58269902,30.5115967 6.98953452,30.5115967 6.62360946,30.8778076 C6.2576844,31.2436523 6.2576844,31.8372802 6.62360946,32.2034912 L7.87251166,33.4533692 C8.04815569,33.6291504 8.28637293,33.7280273 8.53483607,33.7280273 C8.7832992,33.7280273 9.02151644,33.6291504 9.19716047,33.4533692 L11.6953308,30.9532471 C12.0612558,30.5874023 12.0612558,29.9937744 11.6953308,29.6275635 C11.3297716,29.2613526 10.7366071,29.2613526 10.3706821,29.6275635 L10.3706821,29.6275635 Z" id="Path"></path>
                <path d="M10.3706821,37.1279297 L8.53483607,38.9648438 L7.94825817,38.3778076 C7.58233311,38.0119629 6.98953452,38.0119629 6.62360946,38.3778076 C6.2576844,38.7440185 6.2576844,39.3376464 6.62360946,39.7038574 L7.87251166,40.9537354 C8.05547429,41.1368408 8.29515513,41.2283935 8.53483607,41.2283935 C8.774517,41.2283935 9.01419785,41.1368408 9.19716047,40.9537354 L11.6953308,38.4536133 C12.0612558,38.0877685 12.0612558,37.4941406 11.6953308,37.1279297 C11.3297716,36.7617188 10.7366071,36.7617188 10.3706821,37.1279297 Z" id="Path"></path>
                <path d="M15.3465311,24.9777833 L26.039959,24.9777833 C26.557377,24.9777833 26.9767271,24.5581055 26.9767271,24.0402833 C26.9767271,23.5224609 26.557377,23.1027833 26.039959,23.1027833 L15.3465311,23.1027833 C14.829479,23.1027833 14.4097629,23.5224609 14.4097629,24.0402833 C14.4097629,24.5581055 14.829479,24.9777833 15.3465311,24.9777833 Z" id="Path"></path>
                <path d="M15.3465311,32.4781494 L26.039959,32.4781494 C26.557377,32.4781494 26.9767271,32.0584717 26.9767271,31.5406494 C26.9767271,31.0228271 26.557377,30.6031494 26.039959,30.6031494 L15.3465311,30.6031494 C14.829479,30.6031494 14.4097629,31.0228271 14.4097629,31.5406494 C14.4097629,32.0584717 14.829479,32.4781494 15.3465311,32.4781494 Z" id="Path"></path>
                <path d="M26.9767271,39.0410156 C26.9767271,38.5231933 26.557377,38.1035156 26.039959,38.1035156 L15.3465311,38.1035156 C14.829479,38.1035156 14.4097629,38.5231933 14.4097629,39.0410156 C14.4097629,39.5584717 14.829479,39.9785156 15.3465311,39.9785156 L26.039959,39.9785156 C26.557377,39.9785156 26.9767271,39.5584717 26.9767271,39.0410156 Z" id="Path"></path>
                <path d="M7.28593386,18.1801758 L11.0330065,18.1801758 C11.5504244,18.1801758 11.9697746,17.760498 11.9697746,17.2426758 C11.9697746,16.7248536 11.5504244,16.3051758 11.0330065,16.3051758 L7.28593386,16.3051758 C6.76888169,16.3051758 6.34916571,16.7248536 6.34916571,17.2426758 C6.34916571,17.760498 6.76851578,18.1801758 7.28593386,18.1801758 Z" id="Path"></path>
                <path d="M15.3465311,18.1801758 L19.0936037,18.1801758 C19.6110216,18.1801758 20.0303718,17.760498 20.0303718,17.2426758 C20.0303718,16.7248536 19.6110216,16.3051758 19.0936037,16.3051758 L15.3465311,16.3051758 C14.829479,16.3051758 14.4097629,16.7248536 14.4097629,17.2426758 C14.4097629,17.760498 14.829479,18.1801758 15.3465311,18.1801758 Z" id="Path"></path>
                <path d="M23.0433987,43.3125 L23.0214432,43.3125 C22.5040252,43.3125 22.084675,43.7321777 22.084675,44.25 C22.084675,44.7678223 22.5040252,45.1875 23.0214432,45.1875 L23.0433987,45.1875 C23.5608168,45.1875 23.9801668,44.7678223 23.9801668,44.25 C23.9801668,43.7321777 23.5608168,43.3125 23.0433987,43.3125 Z" id="Path"></path>
                <path d="M29.5788202,43.3121338 L25.7347775,43.3121338 C25.2173594,43.3121338 24.7980094,43.7318115 24.7980094,44.2496338 C24.7980094,44.767456 25.2173594,45.1871338 25.7347775,45.1871338 L29.5788202,45.1871338 C30.0962383,45.1871338 30.5155884,44.767456 30.5155884,44.2496338 C30.5155884,43.7318115 30.0962383,43.3121338 29.5788202,43.3121338 L29.5788202,43.3121338 Z" id="Path"></path>
            </g>
        </g>
    </g>
</svg>