<?xml version="1.0" encoding="utf-8"?>
<!-- Generator: Adobe Illustrator 23.0.2, SVG Export Plug-In . SVG Version: 6.00 Build 0)  -->
<svg version="1.1" id="Layer_1" xmlns="http://www.w3.org/2000/svg" xmlns:xlink="http://www.w3.org/1999/xlink" x="0px" y="0px"
	 viewBox="0 0 50.4 50.4" style="enable-background:new 0 0 50.4 50.4;" xml:space="preserve">
<style type="text/css">
	.st0{fill:#2C204D;}
</style>
<title>001-golden-gate-bridge</title>
<desc>Created with Sketch.</desc>
<g id="After-Desktop">
	<g id="Homepage" transform="translate(-413.000000, -2591.000000)">
		<g id="Group-11" transform="translate(263.000000, 2537.000000)">
			<g transform="translate(150.000000, 54.000000)">
				<path id="Shape" class="st0" d="M51.1,25.2c0.3,0,0.5-0.2,0.5-0.5c0-0.3-0.2-0.5-0.5-0.5h-2.7v-1.3c0.9,0.2,1.8,0.3,2.7,0.3
					c0.3,0,0.5-0.2,0.5-0.5s-0.2-0.5-0.5-0.5c-6.4,0-11.6-5.2-11.6-11.6c0-0.3-0.2-0.5-0.5-0.5h-0.5V8.6c0-0.3-0.2-0.5-0.5-0.5
					c-0.3,0-0.5,0.2-0.5,0.5v1.6h-0.5c-0.3,0-0.5,0.2-0.5,0.5c0,6.4-5.2,11.6-11.6,11.6S13.6,17,13.6,10.7c0-0.3-0.2-0.5-0.5-0.5
					h-0.5V8.6c0-0.3-0.2-0.5-0.5-0.5c-0.3,0-0.5,0.2-0.5,0.5v1.6h-0.5c-0.3,0-0.5,0.2-0.5,0.5c0,6.4-5.2,11.6-11.6,11.6
					c-0.3,0-0.5,0.2-0.5,0.5c0,0.3,0.2,0.5,0.5,0.5c0.9,0,1.9-0.1,2.7-0.3v1.3h-2.7c-0.3,0-0.5,0.2-0.5,0.5c0,0.3,0.2,0.5,0.5,0.5
					h11.6v1H-0.9c-0.3,0-0.5,0.2-0.5,0.5c0,0.3,0.2,0.5,0.5,0.5h11.6v6.3h-0.3c-0.3,0-0.5,0.2-0.5,0.5v3.5c-0.4,0-0.9-0.1-1.2-0.5
					c-1-1-2.7-1-3.7,0c-0.7,0.6-1.7,0.6-2.4,0c-0.2-0.2-0.5-0.2-0.7,0c-0.2,0.2-0.2,0.5,0,0.7c1,1,2.7,1,3.7,0
					c0.7-0.6,1.7-0.6,2.4,0c1,1,2.7,1,3.7,0c0.7-0.6,1.7-0.6,2.4,0c1,1,2.7,1,3.7,0c0.7-0.6,1.7-0.6,2.4,0c1,1,2.7,1,3.7,0
					c0.7-0.6,1.7-0.6,2.4,0c1,1,2.7,1,3.7,0c0.7-0.6,1.7-0.6,2.4,0c1,1,2.7,1,3.7,0c0.7-0.6,1.7-0.6,2.4,0c1,1,2.7,1,3.7,0
					c0.7-0.6,1.7-0.6,2.4,0c0.5,0.5,1.2,0.7,1.9,0.7c0.7,0,1.3-0.2,1.9-0.7c0.2-0.2,0.2-0.5,0-0.7c-0.2-0.2-0.5-0.2-0.7,0
					c-0.7,0.6-1.7,0.6-2.4,0c-1-1-2.7-1-3.7,0c-0.3,0.3-0.8,0.5-1.2,0.5v-3.5c0-0.3-0.2-0.5-0.5-0.5h-0.3v-6.3h11.6
					c0.3,0,0.5-0.2,0.5-0.5c0-0.3-0.2-0.5-0.5-0.5H39.6v-1L51.1,25.2L51.1,25.2z M47.4,24.2h-2.3v-2.6c0.7,0.4,1.5,0.7,2.3,1V24.2z
					 M44.2,21.1v3.1h-2.3v-5.1C42.6,19.9,43.3,20.5,44.2,21.1z M40.9,18v6.3h-1.4v-8.7C39.9,16.4,40.4,17.2,40.9,18z M36.7,26.2
					H13.6v-1h23.1V26.2z M11.7,11.2h0.9v22.4h-0.9V11.2z M28.9,24.2v-1.6c0.8-0.2,1.5-0.6,2.3-1v2.6H28.9z M27.9,24.2h-2.3v-1
					c0.8,0,1.5-0.1,2.3-0.3V24.2z M24.7,24.2h-2.3v-1.3c0.7,0.2,1.5,0.3,2.3,0.3V24.2L24.7,24.2z M21.4,24.2h-2.3v-2.6
					c0.7,0.4,1.5,0.7,2.3,1V24.2z M37.7,11.2h0.9v22.4h-0.9V11.2z M36.7,24.2h-1.4V18c0.5-0.8,1-1.6,1.4-2.4V24.2z M34.4,19.2v5.1
					h-2.3v-3.1C32.9,20.5,33.7,19.9,34.4,19.2z M18.2,21.1v3.1h-2.3v-5.1C16.6,19.9,17.4,20.5,18.2,21.1z M14.9,18v6.3h-1.4v-8.7
					C13.9,16.4,14.4,17.2,14.9,18z M8.4,19.2v5.1H6.1v-3.1C6.9,20.5,7.7,19.9,8.4,19.2z M2.9,22.6c0.8-0.2,1.5-0.6,2.3-1v2.6H2.9
					V22.6z M9.3,24.2V18c0.5-0.8,1-1.6,1.4-2.4v8.7H9.3z M11,37.1c-0.1,0.1-0.1,0.1-0.2,0.1v-2.7h2.6v1.8
					C12.6,36.2,11.7,36.5,11,37.1z M39.2,37.1c-0.7-0.6-1.6-0.8-2.4-0.7v-1.8h2.6v2.7C39.4,37.2,39.3,37.1,39.2,37.1z M36.4,33.6
					c-0.3,0-0.5,0.2-0.5,0.5v2.7c-0.1,0.1-0.3,0.2-0.4,0.3c-0.7,0.6-1.7,0.6-2.4,0c-1-1-2.7-1-3.7,0c-0.7,0.6-1.7,0.6-2.4,0
					c-1-1-2.7-1-3.7,0c-0.7,0.6-1.7,0.6-2.4,0c-1-1-2.7-1-3.7,0c-0.7,0.6-1.7,0.6-2.4,0c-0.1-0.1-0.2-0.2-0.4-0.3v-2.7
					c0-0.3-0.2-0.5-0.5-0.5h-0.3v-6.3h23.1v6.3H36.4L36.4,33.6z"/>
				<path id="Path" class="st0" d="M47.8,40.8c-0.7,0.6-1.7,0.6-2.4,0c-1-1-2.7-1-3.7,0c-0.7,0.6-1.7,0.6-2.4,0c-1-1-2.7-1-3.7,0
					c-0.7,0.6-1.7,0.6-2.4,0c-1-1-2.7-1-3.7,0c-0.7,0.6-1.7,0.6-2.4,0c-1-1-2.7-1-3.7,0c-0.7,0.6-1.7,0.6-2.4,0c-1-1-2.7-1-3.7,0
					c-0.7,0.6-1.7,0.6-2.4,0c-1-1-2.7-1-3.7,0c-0.7,0.6-1.7,0.6-2.4,0c-1-1-2.7-1-3.7,0c-0.7,0.6-1.7,0.6-2.4,0
					c-0.2-0.2-0.5-0.2-0.7,0c-0.2,0.2-0.2,0.5,0,0.7c1,1,2.7,1,3.7,0c0.7-0.6,1.7-0.6,2.4,0c1,1,2.7,1,3.7,0c0.7-0.6,1.7-0.6,2.4,0
					c1,1,2.7,1,3.7,0c0.7-0.6,1.7-0.6,2.4,0c1,1,2.7,1,3.7,0c0.7-0.6,1.7-0.6,2.4,0c1,1,2.7,1,3.7,0c0.7-0.6,1.7-0.6,2.4,0
					c1,1,2.7,1,3.7,0c0.7-0.6,1.7-0.6,2.4,0c1,1,2.7,1,3.7,0c0.7-0.6,1.7-0.6,2.4,0c0.5,0.5,1.2,0.7,1.9,0.7c0.7,0,1.3-0.2,1.9-0.7
					c0.2-0.2,0.2-0.5,0-0.7C48.3,40.6,47.9,40.6,47.8,40.8z"/>
			</g>
		</g>
	</g>
</g>
</svg>
