<?xml version="1.0" encoding="utf-8"?>
<!-- Generator: Adobe Illustrator 23.0.3, SVG Export Plug-In . SVG Version: 6.00 Build 0)  -->
<svg version="1.1" id="Layer_1" xmlns="http://www.w3.org/2000/svg" xmlns:xlink="http://www.w3.org/1999/xlink" x="0px" y="0px"
	 viewBox="0 0 50 49" style="enable-background:new 0 0 50 49;" xml:space="preserve">
<title>003-missouri</title>
<desc>Created with Sketch.</desc>
<path d="M12.7,43.9c0.3,0,0.5-0.2,0.5-0.5c0-0.3-0.2-0.5-0.5-0.5h-3v-0.9c0.6,0.3,1.2,0.4,1.9,0.4c0.3,0,0.5,0,0.8-0.1
	c1.2-0.2,2.2-0.9,2.9-1.8l2.2-3.2l0.1,0c0.1,0.1,0.2,0.1,0.3,0.1c0.2,0,0.3-0.1,0.4-0.2c0.2-0.2,0.1-0.5-0.1-0.7l-2.3-1.7l9.1-8
	l9.1,8l-2.3,1.7c-0.2,0.2-0.3,0.5-0.1,0.7c0.1,0.1,0.3,0.2,0.4,0.2c0.1,0,0.2,0,0.3-0.1l0.1,0l2.2,3.2c0.7,1,1.7,1.6,2.9,1.8
	c0.3,0,0.5,0.1,0.8,0.1c0.6,0,1.3-0.1,1.9-0.4v0.9h-3c-0.3,0-0.5,0.2-0.5,0.5c0,0.3,0.2,0.5,0.5,0.5h7c0.3,0,0.5-0.2,0.5-0.5
	c0-0.3-0.2-0.5-0.5-0.5h-3v-1.5l1.1-0.8c1-0.7,1.6-1.7,1.8-2.9c0.2-1.2-0.1-2.4-0.8-3.4L41,31.1l0.1,0c0.2-0.2,0.3-0.5,0.1-0.7
	c-0.2-0.2-0.5-0.3-0.7-0.1L40,30.6l0,0l-1.9,1.3l-4.8-12.4l9.9-8.7c0.2-0.2,0.2-0.5,0-0.7c-0.2-0.2-0.5-0.2-0.7,0l-9.6,8.4L27.8,5.4
	c-0.1-0.3-0.4-0.4-0.7-0.3c-0.3,0.1-0.4,0.4-0.3,0.7l5.3,13.5l-7.2,6.3l-7.2-6.3l5.3-13.5c0.1-0.3,0-0.6-0.3-0.7
	c-0.3-0.1-0.6,0-0.7,0.3l-5.1,13.2l-9.6-8.4c-0.2-0.2-0.5-0.2-0.7,0c-0.2,0.2-0.2,0.5,0,0.7l9.9,8.7l-4.8,12.4l-1.9-1.3l0,0
	l-0.5-0.3c-0.2-0.2-0.5-0.1-0.7,0.1c-0.2,0.2-0.1,0.5,0.1,0.7l0.1,0l-2.2,3.2c-0.7,1-1,2.2-0.8,3.4c0.2,1.2,0.9,2.2,1.8,2.9l1.1,0.8
	v1.5h-3c-0.3,0-0.5,0.2-0.5,0.5c0,0.3,0.2,0.5,0.5,0.5L12.7,43.9L12.7,43.9z M42.4,34.8c0.5,0.8,0.8,1.7,0.6,2.6
	c-0.2,0.9-0.7,1.7-1.4,2.3l-1.4,1c-0.8,0.5-1.7,0.8-2.6,0.6c-0.9-0.2-1.7-0.7-2.3-1.4l-2.2-3.2l7.1-5L42.4,34.8z M32.5,20.2
	l4.8,12.3l-1.2,0.9l-1.2,0.9l-9.2-8L32.5,20.2z M17.3,20.2l6.8,6l-9.2,8l-1.2-0.9l-1.2-0.9L17.3,20.2z M6.8,37.5
	c-0.2-0.9,0.1-1.9,0.6-2.6l2.2-3.2l7.1,5l-2.2,3.2c-0.5,0.8-1.4,1.3-2.3,1.4c-0.9,0.2-1.9-0.1-2.6-0.6l-1.4-1
	C7.4,39.2,6.9,38.4,6.8,37.5z"/>
</svg>
