<?xml version="1.0" encoding="utf-8"?>
<!-- Generator: Adobe Illustrator 23.0.3, SVG Export Plug-In . SVG Version: 6.00 Build 0)  -->
<svg version="1.1" id="Layer_1" xmlns="http://www.w3.org/2000/svg" xmlns:xlink="http://www.w3.org/1999/xlink" x="0px" y="0px"
	 viewBox="0 0 50 49" style="enable-background:new 0 0 50 49;" xml:space="preserve">
<title>003-missouri</title>
<desc>Created with Sketch.</desc>
<g id="LT6vY4.tif">
	<g>
		<path d="M12,21.3c1.8,0.1,3.6,0.2,5.3,0.3c0.9,0.1,1.7,0.5,2.5,0.9c1.9,1,3.8,2,5.6,3c0.4,0.2,0.7,0.5,1,0.8
			c0.4,0.4,0.5,0.9,0.3,1.5c-0.8,2.6-1.6,5.3-2.5,7.9c-0.2,0.7-0.4,1.4-0.7,2.1c-0.4,1-1,1.6-2.1,1.9c-1.9,0.4-3.7,0.8-5.6,1.2
			c-0.9,0.2-1.8,0.4-2.7,0.6c-0.4,0.1-0.7,0.1-1.1,0c-0.5,0-0.9-0.2-1.2-0.5c-1.7-1.7-3.3-3.4-5-5.1c-0.1-0.1-0.2-0.2-0.3-0.4
			c-0.9-0.9-1.3-1.9-1.1-3.1c0.5-3.1,1-6.2,1.5-9.3c0.1-0.6,0.2-1.1,0.6-1.5C7,21.4,7.4,21.2,8,21.2C9.3,21.3,10.6,21.3,12,21.3
			C12,21.3,12,21.3,12,21.3z M21.4,27.3c0,0,0,0.1,0,0.1c-1.2,0-2.3,0.1-3.5,0.1c-1.3,0-2.6,0.9-2.9,2.2c-0.8,3.3-1.6,6.6-2.4,10
			c-0.2,0.7,0.2,1.1,0.9,1c2.4-0.5,4.8-1,7.2-1.5c1-0.2,1.7-0.8,2-1.8c0.9-2.9,1.9-5.7,2.8-8.6c0.1-0.3,0.1-0.7,0-1
			c0-0.3-0.2-0.4-0.5-0.4C23.9,27.3,22.7,27.3,21.4,27.3z M5.3,32.9c0,0.9,0.2,1.6,0.9,2.3c0.7,0.7,1.3,1.4,1.9,2.1
			c0.9,0.9,1.7,1.8,2.6,2.7c0.4,0.4,0.6,0.4,0.8-0.2c0.1-0.3,0.2-0.5,0.2-0.8c0.7-2.6,1.3-5.2,2-7.9c0.2-0.8,0.3-1.6,0.3-2.5
			c0-0.9-0.3-1.7-1.2-2.3c-1.7-1.1-3.4-2.3-5-3.5c-0.4-0.3-0.6-0.2-0.8,0.3c-0.1,0.4-0.2,0.7-0.3,1.1c-0.4,2.2-0.8,4.3-1.1,6.5
			C5.5,31.5,5.4,32.2,5.3,32.9z M8.7,22.1c0.2,0.1,0.3,0.2,0.4,0.3c1.5,1,3,2,4.5,3.1c1,0.7,2.1,1.1,3.4,1c2.2-0.1,4.5-0.2,6.7-0.2
			c0.3,0,0.7,0,1,0c-0.5-0.3-0.9-0.6-1.4-0.9c-0.1,0-0.1-0.1-0.2-0.1c0.2,0.5,0.1,0.7-0.4,0.8c-0.7,0.1-1.4-0.1-2-0.5
			c-0.2-0.1-0.4-0.3-0.3-0.6c0.1-0.3,0.3-0.4,0.6-0.3c0.4,0.1,0.9,0.1,1.4,0.2c-1.3-0.7-2.5-1.4-3.8-2.1c0.1,0.5-0.1,0.7-0.6,0.7
			c-0.6-0.1-1.1-0.3-1.6-0.4c-0.3-0.1-0.5-0.4-0.3-0.8c-1.4,0-2.8-0.1-4.1-0.1c0.3,0.2,0.6,0.3,0.9,0.5c0.1,0.1,0.2,0.3,0.2,0.4
			c0,0.1-0.2,0.2-0.3,0.2c-0.1,0-0.3,0.1-0.4,0.1c-0.7,0.1-1.4-0.1-1.9-0.5c-0.3-0.2-0.3-0.4,0-0.6c0,0,0-0.1,0.1-0.1
			C9.9,22.1,9.3,22.1,8.7,22.1z"/>
		<path d="M36.8,10.6c0.5,0.2,1,0.3,1.5,0.5c1.8,0.8,3.7,1.7,5.5,2.5c0.4,0.2,0.8,0.5,1.1,0.8c0.4,0.3,0.6,0.8,0.7,1.3
			c0.2,2.6,0.4,5.1,0.6,7.7c0.1,0.9,0.1,1.8,0.1,2.6c0,0.8-0.4,1.4-1.1,1.8c-2.1,1.2-4.1,2.4-6.2,3.5c-0.8,0.5-1.7,1-2.6,1.4
			c-0.4,0.2-0.9,0.4-1.3,0.5c-0.5,0.1-1,0-1.3-0.4c-0.6-0.6-1.1-1.1-1.7-1.6c-0.9-0.9-1.8-1.8-2.7-2.7c-1.2-1.2-2-2.7-2.4-4.3
			c-0.6-2.3-1.2-4.5-1.8-6.8c-0.1-0.5-0.2-1-0.2-1.5c0-0.6,0.3-1.1,0.9-1.3c2-0.8,3.9-1.6,5.9-2.4c1.1-0.4,2.2-0.9,3.3-1.3
			C35.6,10.8,36.2,10.7,36.8,10.6z M29,14.3c-1,0.3-1.9,0.6-2.7,1.3c0.1,0.1,0.2,0.2,0.3,0.3c1.2,1,2.5,2,3.7,3
			c0.1,0.1,0.3,0.2,0.4,0.3c0.6,0.4,1.3,0.5,2.1,0.3c1.2-0.3,2.3-0.8,3.5-1.4c2.1-1,4.2-1.9,6.3-2.9c0.4-0.2,0.8-0.4,1.3-0.7
			c-0.4-0.2-0.7-0.4-1-0.6c-1.4-0.7-2.9-1.4-4.3-2c-1.1-0.5-2.2-0.5-3.3-0.1c-1.2,0.4-2.4,0.9-3.5,1.4C30.8,13.5,29.9,13.9,29,14.3
			L29,14.3z M45.6,24.4C45.6,24.4,45.6,24.4,45.6,24.4c-0.2-2.1-0.3-4.1-0.5-6.2c0-0.6-0.1-1.1-0.2-1.7c-0.1-0.7-0.6-0.9-1.2-0.6
			c-0.1,0-0.2,0.1-0.3,0.1c-2.8,1.3-5.7,2.5-8.5,3.8c-0.4,0.2-0.9,0.5-1.2,0.8c-0.7,0.6-1,1.3-0.8,2.2c0.6,2.8,1.2,5.7,1.9,8.5
			c0.1,0.4,0.3,0.6,0.7,0.6c0.3,0,0.5,0,0.8-0.2c0.7-0.4,1.5-0.8,2.2-1.2c1.8-1,3.7-2,5.5-3.1c0.7-0.4,1.3-0.9,1.5-1.6
			C45.6,25.5,45.5,25,45.6,24.4z M33.5,31.5C33.5,31.5,33.5,31.4,33.5,31.5c0-0.3,0-0.6-0.1-0.8c-0.3-1.6-0.7-3.2-1.1-4.8
			c-0.3-1.3-0.7-2.7-1.1-4c-0.2-0.6-0.6-1.2-1.1-1.6c-1.4-1.1-2.8-2.2-4.1-3.3c0,0-0.1,0-0.1,0c0,0.2,0.1,0.3,0.1,0.5
			c0.7,2.4,1.3,4.8,2,7.2c0.3,1.2,0.9,2.2,1.8,3.1c0.3,0.3,0.6,0.7,1,1.1C31.7,29.7,32.6,30.6,33.5,31.5z"/>
		<path d="M18.8,30.4c0,0.8-0.6,1.6-1.3,1.8c-0.8,0.3-1.4-0.2-1.4-1c0-0.8,0.7-1.8,1.5-1.9C18.3,29.2,18.8,29.6,18.8,30.4z"/>
		<path d="M16.9,37.4c0,0.9-0.9,1.8-1.7,1.8c-0.5,0-0.9-0.3-0.9-0.8c-0.1-1,1-2,2-1.8C16.7,36.6,16.9,36.9,16.9,37.4z"/>
		<path d="M20.8,33.5c0,0.8-0.7,1.7-1.4,1.9c-0.5,0.1-0.9-0.1-1.1-0.6c-0.3-0.9,0.6-2.1,1.6-2.2c0.4,0,0.6,0.1,0.8,0.5
			C20.7,33.2,20.7,33.4,20.8,33.5z"/>
		<path d="M24.4,30c-0.1,0.6-0.4,1.2-1.1,1.5c-0.6,0.4-1.2,0-1.3-0.7c-0.1-0.8,0.7-1.8,1.5-2C24,28.8,24.4,29.2,24.4,30z"/>
		<path d="M22.5,36.4c0,0.7-0.7,1.6-1.4,1.7c-0.3,0.1-0.6,0-0.8-0.4c-0.3-0.5-0.1-1,0.2-1.5c0.3-0.5,0.7-0.8,1.3-0.8
			C22.2,35.5,22.5,35.9,22.5,36.4z"/>
		<path d="M10.7,29.3c0.1-0.4,0.2-0.8,0.4-1.1c0.3-0.6,1-0.6,1.4-0.1c0.5,0.6,0.6,1.7,0.1,2.4c-0.4,0.6-0.9,0.6-1.4,0.1
			C11,30.3,10.8,29.9,10.7,29.3z"/>
		<path d="M12,33.1c0,0.5-0.1,0.9-0.4,1.2c-0.3,0.4-0.8,0.4-1.1,0c-0.5-0.5-0.7-2-0.2-2.6c0.3-0.5,0.9-0.5,1.2-0.1
			C11.9,32.1,12,32.6,12,33.1z"/>
		<path d="M9.3,36.2c0.1-0.3,0.1-0.6,0.2-0.9c0.2-0.5,0.8-0.6,1.2-0.2c0.1,0.1,0.3,0.3,0.3,0.5c0.1,0.5,0.1,1.1,0.1,1.6
			c0,0.3-0.2,0.6-0.5,0.7c-0.3,0.1-0.6,0-0.9-0.3C9.4,37.2,9.3,36.7,9.3,36.2z"/>
		<path d="M6.9,26.2c0.1-0.4,0.1-0.7,0.2-0.9c0.1-0.3,0.3-0.5,0.7-0.6c0.4,0,0.7,0.1,0.8,0.5c0.3,0.6,0.3,1.3,0.1,2
			c-0.1,0.3-0.3,0.5-0.7,0.5c-0.3,0-0.6-0.1-0.7-0.4C7,26.9,7,26.5,6.9,26.2z"/>
		<path d="M6.3,29.4c0-0.2,0-0.4,0-0.6c0.1-0.4,0.4-0.6,0.7-0.7c0.3,0,0.7,0.1,0.8,0.5c0.2,0.6,0.3,1.2,0.1,1.9
			c-0.1,0.3-0.3,0.6-0.6,0.6c-0.2,0-0.6-0.2-0.7-0.5C6.4,30.2,6.4,29.8,6.3,29.4C6.3,29.4,6.3,29.4,6.3,29.4z"/>
		<path d="M7.6,32.9c-0.1,0.3-0.3,0.7-0.4,1c-0.2,0.4-0.6,0.4-0.9,0.1c-0.5-0.5-0.7-1.6-0.3-2.2c0.1-0.1,0.1-0.2,0.2-0.3
			c0.3-0.3,0.6-0.3,0.9,0C7.3,32,7.5,32.4,7.6,32.9z"/>
		<path d="M15.4,24.6c0.5,0.2,1.1,0.3,1.6,0.5c0.2,0.1,0.3,0.2,0.4,0.4c0.2,0.3,0.1,0.6-0.3,0.7c-1,0.2-1.9,0-2.6-0.6
			c-0.2-0.2-0.2-0.5,0.1-0.6C14.8,24.8,15.1,24.7,15.4,24.6z"/>
		<path d="M44,19.1c0,1-0.7,1.8-1.6,1.9c-0.6,0.1-1.1-0.3-1.2-1c-0.1-0.9,0.2-1.5,1-2C43.2,17.5,44,18,44,19.1z"/>
		<path d="M41.3,23.8c0,0.9-0.6,1.7-1.4,1.9c-0.9,0.3-1.6-0.6-1.4-1.3c0.1-0.6,0.5-1.1,1-1.5c0.4-0.3,0.9-0.3,1.3-0.1
			C41.2,23,41.2,23.4,41.3,23.8z"/>
		<path d="M38.6,28.5c0,0.8-0.7,1.7-1.6,1.8c-0.7,0.1-1.2-0.4-1.3-1c0-0.9,0.8-1.8,1.6-1.9C38.2,27.3,38.6,27.8,38.6,28.5z"/>
		<path d="M39.7,15.7c-0.3-0.1-0.7-0.1-1-0.2c-0.6-0.2-0.6-0.8-0.2-1.2c0.5-0.5,2-0.7,2.6-0.3c0.4,0.3,0.5,0.7,0.2,1.1
			c-0.3,0.3-0.7,0.5-1.1,0.5C40.1,15.6,39.9,15.6,39.7,15.7C39.7,15.7,39.7,15.7,39.7,15.7z"/>
		<path d="M29,14.3c0.1,0,0.2,0,0.2,0c0.3,0,0.6-0.1,0.9-0.1c0.5,0,1.1,0.3,1.2,0.6c0.1,0.3-0.2,0.7-0.7,1c-0.5,0.3-1,0.4-1.5,0.3
			c-0.2,0-0.5-0.1-0.7-0.2c-0.4-0.3-0.5-0.7-0.1-1C28.5,14.6,28.7,14.4,29,14.3C29,14.3,29,14.3,29,14.3z"/>
		<path d="M30.5,24.8c0,0.4-0.1,0.7-0.4,0.7c-0.2,0-0.5-0.1-0.7-0.3c-0.5-0.5-0.8-1.2-0.8-1.9c0-0.3,0-0.6,0.3-0.7
			c0.2,0,0.6,0,0.7,0.2C30.1,23.4,30.4,24.1,30.5,24.8z"/>
	</g>
</g>
</svg>
