<?xml version="1.0" encoding="UTF-8"?>
<svg width="124px" height="47px" viewBox="0 0 124 47" version="1.1" xmlns="http://www.w3.org/2000/svg" xmlns:xlink="http://www.w3.org/1999/xlink">
    <!-- Generator: Sketch 53.1 (72631) - https://sketchapp.com -->
    <title>Group 18</title>
    <desc>Created with Sketch.</desc>
    <defs>
        <linearGradient x1="50%" y1="0%" x2="50%" y2="100%" id="linearGradient-1">
            <stop stop-color="#FAD08E" offset="0%"></stop>
            <stop stop-color="#F18577" offset="100%"></stop>
        </linearGradient>
        <path d="M19.0875531,0.334789855 L17.9864196,1.26252899 C17.252218,1.8817029 0,16.544 0,27.3543406 L0,27.3543406 C0,38.3829928 13.219346,45.7378116 13.7822452,46.0453551 L13.7822452,46.0453551 L14.9053406,46.6594203 L18.2641526,43.293471 L19.0882289,42.4679058 L21.1164905,44.5008261 L23.2701035,46.6594203 L24.3935368,46.0453551 C24.9560981,45.7378116 38.1754441,38.3829928 38.1754441,27.3543406 L38.1754441,27.3543406 C38.1754441,16.544 20.9225504,1.8817029 20.1883488,1.26252899 L20.1883488,1.26252899 L19.0875531,0.334789855 Z M3.43382016,27.3543406 C3.43382016,20.2638116 13.8677275,9.5175 19.0875531,4.87369565 L19.0875531,4.87369565 C24.3070409,9.51681884 34.741624,20.2631304 34.741624,27.3543406 L34.741624,27.3543406 C34.741624,34.6938333 26.7856894,40.4618913 23.8373951,42.347 L23.8373951,42.347 L21.5232916,40.0283333 L21.681079,39.8706449 C21.9790845,39.5978406 22.2693188,39.3318478 22.5554986,39.0689203 L22.5554986,39.0689203 C27.3485886,34.6642029 30.4610899,31.5782101 30.4610899,27.3914638 L30.4610899,27.3914638 C30.4610899,23.4192826 27.3739292,20.3074058 23.433297,20.3074058 L23.433297,20.3074058 C21.8834659,20.3074058 20.3478256,20.825087 19.0875531,21.7388623 L19.0875531,21.7388623 C17.8276185,20.825087 16.292654,20.3074058 14.7421471,20.3074058 L14.7421471,20.3074058 C10.801515,20.3074058 7.71401635,23.4192826 7.71401635,27.3914638 L7.71401635,27.3914638 C7.71401635,31.8200217 11.1948011,35.0160217 16.4808501,39.8488478 L16.4808501,39.8488478 L16.4767956,39.8525942 L16.6524905,40.0279928 L14.3366975,42.3487029 C11.3870518,40.4690435 3.43382016,34.715971 3.43382016,27.3543406 L3.43382016,27.3543406 Z M20.3947902,25.1950652 C21.1492643,24.3024058 22.2851989,23.7687174 23.433297,23.7687174 L23.433297,23.7687174 C25.4487193,23.7687174 27.0276076,25.3602464 27.0276076,27.3914638 L27.0276076,27.3914638 C27.0276076,30.2962681 23.9816676,33.0856159 19.3335259,37.3445652 L19.3335259,37.3445652 L19.2787902,37.3980362 L19.2774387,37.3973551 L19.0919455,37.5836522 L18.8280654,37.3210652 C14.2032371,33.094471 11.1481744,30.3013768 11.1481744,27.3914638 L11.1481744,27.3914638 C11.1481744,25.3602464 12.7270627,23.7687174 14.7421471,23.7687174 L14.7421471,23.7687174 C15.8899074,23.7687174 17.0265177,24.3017246 17.7803161,25.1947246 L17.7803161,25.1947246 L19.0868774,26.7419783 L20.3947902,25.1950652 Z" id="path-2"></path>
        <polygon id="path-4" points="0.193095368 0.105511594 10.3798474 0.105511594 10.3798474 20.0539464 0.193095368 20.0539464"></polygon>
    </defs>
    <g id="After-Desktop" stroke="none" stroke-width="1" fill="none" fill-rule="evenodd">
        <g id="Homepage" transform="translate(-162.000000, -43.000000)">
            <g id="Group-18" transform="translate(162.000000, 43.000000)">
                <g id="Group-3" transform="translate(0.000000, 0.005790)">
                    <mask id="mask-3" fill="white">
                        <use xlink:href="#path-2"></use>
                    </mask>
                    <use id="Clip-2" fill="url(#linearGradient-1)" xlink:href="#path-2"></use>
                </g>
                <g id="Group-17" transform="translate(18.920981, 12.266659)">
                    <polygon id="Fill-4" fill="#CE5E70" points="2.60234441 27.7676 0.398050136 29.9742159 0.166943869 30.2071725 1.2038812 31.2462812 3.63928174 28.8067087"></polygon>
                    <path d="M39.358242,22.9376348 C38.1912229,24.1129754 36.713697,24.7008159 34.9645199,24.7008159 C33.214667,24.7008159 31.7371411,24.1129754 30.5711357,22.9376348 C29.4047924,21.7224464 28.820945,20.2330913 28.820945,18.4300623 C28.820945,16.6273739 29.4047924,15.1380188 30.5711357,13.9619971 C31.7371411,12.7471493 33.214667,12.1596493 34.9645199,12.1596493 C36.713697,12.1596493 38.1912229,12.7471493 39.358242,13.9619971 C40.5245853,15.1380188 41.1074191,16.6273739 41.1074191,18.4300623 C41.1074191,20.2330913 40.5245853,21.7224464 39.358242,22.9376348 L39.358242,22.9376348 Z M41.1074191,11.415142 C39.5133264,9.21976522 37.258351,8.12275797 34.3036371,8.12275797 C31.6205744,8.12275797 29.365261,9.10226522 27.4603237,11.1014681 C25.5557243,13.0996493 24.6218387,15.5300261 24.6218387,18.4300623 C24.6218387,21.2909319 25.5557243,23.7601348 27.4603237,25.7586565 C29.365261,27.7578594 31.6205744,28.7370261 34.3036371,28.7370261 C37.258351,28.7370261 39.5133264,27.6403594 41.1074191,25.4061565 L41.1074191,28.2278594 L45.3065253,28.2278594 L45.3065253,8.63192464 L41.1074191,8.63192464 L41.1074191,11.415142 Z" id="Fill-6" fill="#2C204D"></path>
                    <path d="M48.6497951,8.24046232 L48.6497951,8.63178841 L48.6497951,12.708187 L48.6497951,28.2280638 L52.8489014,28.2280638 L52.8489014,12.708187 L57.4372392,12.708187 L57.4372392,8.63178841 L52.8489014,8.63178841 L52.8489014,8.24046232 C52.8489014,5.37959275 54.3656207,4.08573043 57.4372392,4.36023768 L57.4372392,0.28452029 C51.6828959,-0.0683202899 48.6497951,2.87122319 48.6497951,8.24046232" id="Fill-8" fill="#2C204D"></path>
                    <path d="M75.0987248,16.7842449 C75.6818965,13.8058754 77.8588229,11.9633391 80.9686213,11.9633391 C83.729733,11.9633391 85.945515,13.6097014 86.5293624,16.7842449 L75.0987248,16.7842449 Z M81.0081526,8.12296232 C78.0139074,8.12296232 75.5257984,9.10246957 73.6205232,11.1013319 C71.7155858,13.060687 70.7435204,15.4903826 70.7435204,18.4299261 C70.7435204,21.4086362 71.7155858,23.8778391 73.6597166,25.8371942 C75.6035095,27.7580638 78.1700054,28.7372304 81.3193351,28.7372304 C85.0903542,28.7372304 87.9288392,27.3265493 89.8337766,24.4656797 L86.3732643,22.4273101 C85.2457766,24.0341652 83.5736349,24.8573464 81.3578529,24.8573464 C78.130812,24.8573464 75.7589319,23.2113246 75.1369046,20.2329551 L90.611564,20.2329551 C90.7284687,19.4877667 90.7669864,18.9002667 90.7669864,18.4690928 C90.7669864,15.6082232 89.8337766,13.1393609 88.0065504,11.1404986 C86.1796621,9.14197681 83.8466376,8.12296232 81.0081526,8.12296232 L81.0081526,8.12296232 Z" id="Fill-10" fill="#2C204D"></path>
                    <g id="Group-14" transform="translate(94.267030, 8.173913)">
                        <mask id="mask-5" fill="white">
                            <use xlink:href="#path-4"></use>
                        </mask>
                        <g id="Clip-13"></g>
                        <path d="M4.39220163,3.75039565 L4.39220163,0.458011594 L0.193095368,0.458011594 L0.193095368,20.0539464 L4.39220163,20.0539464 L4.39220163,10.1774754 C4.39220163,8.17895362 4.9753733,6.72876522 6.18091008,5.86709855 C7.38543324,4.96524348 8.78592371,4.57323623 10.3800163,4.69073623 L10.3800163,0.105511594 C7.46382016,0.105511594 5.44164033,1.3207 4.39220163,3.75039565" id="Fill-12" fill="#2C204D" mask="url(#mask-5)"></path>
                    </g>
                    <path d="M68.9084218,12.7082551 L68.9111248,8.63185652 L64.0301875,8.63185652 L64.0301875,4.38244348 L64.0301875,0.25597971 L59.7790485,0.25597971 L59.7790485,4.38244348 L59.7790485,22.3834435 C59.7790485,27.5810304 62.4161602,29.3666899 68.9111248,28.5731391 L68.9111248,24.724929 C65.6827324,24.8832986 64.0301875,24.9228058 64.0301875,22.3834435 L64.0274845,12.7082551 L68.9084218,12.7082551 Z" id="Fill-15" fill="#2C204D"></path>
                </g>
            </g>
        </g>
    </g>
</svg>